<svg width="130" height="260" viewBox="0 0 130 260" fill="none" xmlns="http://www.w3.org/2000/svg"> <rect y="130" width="130" height="130" fill="#397B44"/> <rect x="101" y="163" width="5" height="10" fill="#265C42"/> <rect x="96" y="158" width="5" height="5" fill="#265C42"/> <rect x="96" y="163" width="5" height="10" fill="#3E8948"/> <rect x="41" y="140" width="5" height="10" fill="#265C42"/> <rect x="36" y="135" width="5" height="5" fill="#265C42"/> <rect x="36" y="173" width="5" height="5" fill="#265C42"/> <rect x="115" y="214" width="5" height="5" fill="#265C42"/> <rect x="106" y="135" width="5" height="5" fill="#265C42"/> <rect x="43" y="234" width="5" height="5" fill="#265C42"/> <rect x="15" y="200" width="5" height="5" fill="#265C42"/> <rect x="36" y="140" width="5" height="10" fill="#3E8948"/> <rect x="51" y="209" width="5" height="10" fill="#265C42"/> <rect x="46" y="204" width="5" height="5" fill="#265C42"/> <rect x="46" y="209" width="5" height="10" fill="#3E8948"/> <rect x="90" y="254" width="6" height="6" fill="#3E8948"/> <rect x="34" y="254" width="6" height="6" fill="#3E8948"/> <rect x="40" y="254" width="50" height="6" fill="#265C42"/> <rect width="130" height="130" fill="#397B44"/> <rect x="101" y="33" width="5" height="10" fill="#265C42"/> <rect x="96" y="28" width="5" height="5" fill="#265C42"/> <rect x="96" y="33" width="5" height="10" fill="#3E8948"/> <rect x="41" y="10" width="5" height="10" fill="#265C42"/> <rect x="36" y="5" width="5" height="5" fill="#265C42"/> <rect x="36" y="43" width="5" height="5" fill="#265C42"/> <rect x="115" y="84" width="5" height="5" fill="#265C42"/> <rect x="106" y="5" width="5" height="5" fill="#265C42"/> <rect x="43" y="104" width="5" height="5" fill="#265C42"/> <rect x="15" y="70" width="5" height="5" fill="#265C42"/> <rect x="36" y="10" width="5" height="10" fill="#3E8948"/> <rect x="51" y="79" width="5" height="10" fill="#265C42"/> <rect x="46" y="74" width="5" height="5" fill="#265C42"/> <rect x="46" y="79" width="5" height="10" fill="#3E8948"/> <rect x="71.3336" y="203.333" width="6.33329" height="37.9997" fill="#814107"/> <rect x="45.9998" y="241.332" width="6.33329" height="6.33329" fill="#B97D46"/> <rect x="52.3337" y="241.332" width="6.33329" height="6.33329" fill="#A35C1A"/> <rect x="52.3337" y="247.666" width="6.33329" height="6.33329" fill="#A35C1A"/> <rect x="45.9998" y="247.666" width="6.33329" height="6.33329" fill="#A35C1A"/> <rect x="71.3336" y="241.332" width="6.33329" height="6.33329" fill="#A35C1A"/> <rect x="45.9998" y="190.666" width="6.33329" height="6.33329" fill="#A35C1A"/> <rect x="58.6658" y="190.666" width="6.33329" height="6.33329" fill="#A35C1A"/> <rect x="64.9998" y="190.666" width="6.33329" height="6.33329" fill="#A35C1A"/> <rect x="77.6658" y="190.666" width="6.33329" height="6.33329" fill="#A35C1A"/> <rect x="52.3337" y="196.999" width="25.3332" height="6.33329" fill="#A35C1A"/> <rect x="71.3336" y="247.666" width="6.33329" height="6.33329" fill="#A35C1A"/> <rect x="77.6658" y="247.666" width="6.33329" height="6.33329" fill="#A35C1A"/> <rect x="77.6658" y="241.332" width="6.33329" height="6.33329" fill="#814107"/> <rect x="52.3337" y="190.666" width="6.33329" height="6.33329" fill="#814107"/> <rect x="45.9998" y="184.333" width="6.33329" height="6.33329" fill="#814107"/> <rect x="77.6658" y="184.333" width="6.33329" height="6.33329" fill="#814107"/> <rect x="71.3336" y="184.333" width="6.33329" height="6.33329" fill="#10561C"/> <rect x="77.6658" y="177.999" width="6.33329" height="6.33329" fill="#10561C"/> <rect x="71.3336" y="152.666" width="6.33329" height="6.33329" fill="#10561C"/> <rect x="58.6658" y="152.666" width="6.33329" height="6.33329" fill="#10561C"/> <rect x="45.9998" y="152.666" width="6.33329" height="6.33329" fill="#10561C"/> <rect x="33.334" y="146.333" width="12.6666" height="6.33329" fill="#10561C"/> <rect x="64.9998" y="146.333" width="6.33329" height="6.33329" fill="#10561C"/> <rect x="77.6658" y="146.333" width="6.33329" height="6.33329" fill="#10561C"/> <rect x="83.9995" y="152.666" width="6.33329" height="6.33329" fill="#10561C"/> <rect x="90.3335" y="146.333" width="6.33329" height="6.33329" fill="#10561C"/> <rect x="52.3337" y="146.333" width="6.33329" height="6.33329" fill="#10561C"/> <rect x="52.3337" y="184.333" width="6.33329" height="6.33329" fill="#10561C"/> <rect x="45.9998" y="177.999" width="6.33329" height="6.33329" fill="#10561C"/> <rect x="39.666" y="177.999" width="6.33329" height="6.33329" fill="#5EB069"/> <rect x="33.334" y="177.999" width="6.33329" height="6.33329" fill="#5EB069"/> <rect x="33.334" y="171.666" width="6.33329" height="6.33329" fill="#5EB069"/> <rect x="27" y="171.666" width="6.33329" height="6.33329" fill="#5EB069"/> <rect x="27" y="165.333" width="6.33329" height="6.33329" fill="#5EB069"/> <rect x="27" y="146.333" width="6.33329" height="6.33329" fill="#5EB069"/> <rect x="33.334" y="133.666" width="6.33329" height="12.6666" fill="#5EB069"/> <rect x="39.666" y="121" width="6.33329" height="12.6666" fill="#5EB069"/> <rect x="45.9998" y="108.333" width="6.33329" height="12.6666" fill="#5EB069"/> <rect x="52.3337" y="95.6667" width="6.33329" height="12.6666" fill="#5EB069"/> <rect x="58.6658" y="177.999" width="12.6666" height="6.33329" fill="#10561C"/> <rect x="71.3336" y="190.666" width="6.33329" height="6.33329" fill="#814107"/> <rect x="58.6658" y="184.333" width="12.6666" height="6.33329" fill="#814107"/> <rect x="83.9995" y="247.666" width="6.33329" height="6.33329" fill="#814107"/> <rect x="90.3" y="247.67" width="6.33329" height="6.33329" fill="#265C42"/> <rect x="34" y="248" width="6" height="6" fill="#265C42"/> <rect x="39.666" y="247.666" width="6.33329" height="6.33329" fill="#B97D46"/> <rect x="52.3337" y="203.333" width="6.33329" height="37.9997" fill="#B97D46"/> <rect x="58.6658" y="203.333" width="6.33329" height="50.6663" fill="#A35C1A"/> <rect x="64.9998" y="203.333" width="6.33329" height="50.6663" fill="#A35C1A"/> <rect x="83.9995" y="177.999" width="12.6666" height="6.33329" fill="#2F753B"/> <rect x="90.3335" y="171.666" width="12.6666" height="6.33329" fill="#2F753B"/> <rect x="83.9995" y="158.999" width="12.6666" height="6.33329" fill="#2F753B"/> <rect x="96.6655" y="165.333" width="6.33329" height="6.33329" fill="#2F753B"/> <rect x="90.3335" y="152.666" width="6.33329" height="6.33329" fill="#2F753B"/> <rect x="77.6658" y="152.666" width="6.33329" height="6.33329" fill="#2F753B"/> <rect x="71.3336" y="158.999" width="6.33329" height="6.33329" fill="#2F753B"/> <rect x="64.9998" y="152.666" width="6.33329" height="6.33329" fill="#2F753B"/> <rect x="58.6658" y="158.999" width="6.33329" height="6.33329" fill="#2F753B"/> <rect x="52.3337" y="152.666" width="6.33329" height="6.33329" fill="#2F753B"/> <rect x="45.9998" y="158.999" width="6.33329" height="6.33329" fill="#2F753B"/> <path d="M39.666 133.666H45.9993V121H52.3326V108.333H58.6659V95.6667H71.3325V108.333H77.6658V121H83.999V133.666H90.3323V152.666H83.999V146.333H77.6658V152.666H71.3325V146.333H64.9992V152.666H58.6659V146.333H52.3326V152.666H45.9993V146.333H39.666V133.666Z" fill="#308D40"/> <path d="M33.334 158.999H39.6673H46.0006V165.333H52.3338V158.999H58.6671V165.333H65.0004V158.999H71.3337V165.333H77.667V158.999H84.0003V165.333H96.6668V171.666H90.3336V177.999H84.0003H77.667V184.333H71.3337V177.999H65.0004H58.6671V184.333H52.3338V177.999H39.6673V171.666H33.334V165.333V158.999Z" fill="#308D40"/> <rect x="33.334" y="152.666" width="12.6666" height="6.33329" fill="#2F753B"/> <rect x="96.6655" y="146.333" width="6.33329" height="6.33329" fill="#2F753B"/> <rect x="90.3335" y="133.666" width="6.33329" height="12.6666" fill="#2F753B"/> <path d="M83.9995 121H90.3328V133.666H83.9995V121Z" fill="#2F753B"/> <rect x="77.6658" y="108.333" width="6.33329" height="12.6666" fill="#2F753B"/> <rect x="71.3336" y="95.6667" width="6.33329" height="12.6666" fill="#2F753B"/> <rect x="58.6658" y="83" width="12.6666" height="12.6666" fill="#308D40"/> <rect x="77.6658" y="121" width="6.33329" height="6.33329" fill="#10561C"/> <rect x="71.3336" y="127.333" width="6.33329" height="6.33329" fill="#10561C"/> <rect x="64.9998" y="121" width="6.33329" height="6.33329" fill="#10561C"/> <rect x="58.6658" y="127.333" width="6.33329" height="6.33329" fill="#10561C"/> <rect x="52.3337" y="121" width="6.33329" height="6.33329" fill="#10561C"/> <rect x="77.6658" y="127.333" width="6.33329" height="6.33329" fill="#2F753B"/> <rect x="64.9998" y="127.333" width="6.33329" height="6.33329" fill="#2F753B"/> <rect x="52.3337" y="127.333" width="6.33329" height="6.33329" fill="#2F753B"/> <rect x="45.9998" y="121" width="6.33329" height="6.33329" fill="#2F753B"/> </svg>