<svg width="154" height="156" viewBox="0 0 154 156" fill="none" xmlns="http://www.w3.org/2000/svg"> <path d="M14 15C36.5 -3.99999 130.5 -3.49998 144 15C157.5 33.5 155 131 144 145C133 159 25.5 160 14 145C2.49998 130 -8.50005 34 14 15Z" fill="#397B44"/> <rect x="136" y="48" width="5" height="10" fill="#265C42"/> <rect x="131" y="43" width="5" height="5" fill="#265C42"/> <rect x="131" y="48" width="5" height="10" fill="#3E8948"/> <rect x="55" y="25" width="5" height="10" fill="#265C42"/> <rect x="50" y="20" width="5" height="5" fill="#265C42"/> <rect x="50" y="58" width="5" height="5" fill="#265C42"/> <rect x="129" y="99" width="5" height="5" fill="#265C42"/> <rect x="120" y="20" width="5" height="5" fill="#265C42"/> <rect x="57" y="128" width="5" height="5" fill="#265C42"/> <rect x="29" y="85" width="5" height="5" fill="#265C42"/> <rect x="50" y="25" width="5" height="10" fill="#3E8948"/> <rect x="65" y="94" width="5" height="10" fill="#265C42"/> <rect x="60" y="89" width="5" height="5" fill="#265C42"/> <rect x="60" y="94" width="5" height="10" fill="#3E8948"/> <rect x="46" y="50.9991" width="3.00007" height="50.0012" fill="#592671"/> <rect x="55.0006" y="110.001" width="3.00007" height="48.0011" transform="rotate(-90 55.0006 110.001)" fill="#592671"/> <rect x="55.0006" y="45.0002" width="3.00007" height="48.0011" transform="rotate(-90 55.0006 45.0002)" fill="#592671"/> <rect x="109" y="50.9991" width="3.00007" height="50.0012" fill="#592671"/> <rect x="106.002" y="48.0013" width="3.00007" height="3.00007" fill="#592671"/> <rect x="49.0011" y="48.0013" width="3.00007" height="3.00007" fill="#592671"/> <rect x="49.0011" y="100.999" width="3.00007" height="3.00007" fill="#592671"/> <rect x="51.9988" y="103.997" width="3.00007" height="3.00007" fill="#592671"/> <rect x="52" y="107" width="3.00007" height="3.00007" fill="#265C42"/> <rect x="52" y="110" width="3.00007" height="3.00007" fill="#3E8948"/> <rect x="103" y="110" width="3.00007" height="3.00007" fill="#3E8948"/> <rect x="106" y="107" width="3.00007" height="3.00007" fill="#3E8948"/> <rect x="109" y="104" width="3.00007" height="3.00007" fill="#3E8948"/> <rect x="49" y="107" width="3.00007" height="3.00007" fill="#3E8948"/> <rect x="46" y="107" width="3.00007" height="3.00007" fill="#3E8948"/> <rect x="49" y="110" width="3.00007" height="3.00007" fill="#3E8948"/> <rect x="49" y="113" width="3.00007" height="3.00007" fill="#3E8948"/> <rect x="43" y="104" width="3.00007" height="3.00007" fill="#3E8948"/> <rect x="49" y="104" width="3.00007" height="3.00007" fill="#265C42"/> <rect x="103" y="107" width="3.00007" height="3.00007" fill="#265C42"/> <rect x="106" y="104" width="3.00007" height="3.00007" fill="#265C42"/> <rect x="109" y="101" width="3.00007" height="3.00007" fill="#265C42"/> <rect x="55" y="110" width="48" height="3" fill="#265C42"/> <rect x="51.9988" y="45.0002" width="3.00007" height="3.00007" fill="#592671"/> <rect x="103.001" y="103.997" width="3.00007" height="3.00007" fill="#592671"/> <rect x="106.002" y="100.999" width="3.00007" height="3.00007" fill="#592671"/> <rect x="103.001" y="45.0002" width="3.00007" height="3.00007" fill="#592671"/> <path d="M55.0012 45.0002H103.002V48.0003H106.002V51.0003H109.003V101.001H106.002V104.002H103.002V107.002H55.0012V104.002H52.0012V101.001H49.0011V51.0003H52.0012V48.0003H55.0012V45.0002Z" fill="#CD6FDC"/> <rect x="58.9994" y="57.4971" width="40.0009" height="40.0009" fill="#B460C1"/> <rect x="96.0019" y="57.4972" width="3.00007" height="3.42865" fill="#CD6FDC"/> <rect x="58.9994" y="57.4971" width="3.00007" height="3.42865" fill="#CD6FDC"/> <rect x="58.9994" y="94.0703" width="3.00007" height="3.42865" fill="#CD6FDC"/> <rect x="96.0019" y="94.0703" width="3.00007" height="3.42865" fill="#CD6FDC"/> <rect x="62.5007" y="66.5004" width="11.0003" height="11.0003" fill="#74407C"/> <rect x="84.4995" y="66.5004" width="11.0003" height="11.0003" fill="#74407C"/> <rect x="67.4991" y="84.499" width="6.00014" height="6.00014" fill="#74407C"/> <rect x="96.0019" y="53.4967" width="3.00007" height="7.50017" fill="#D98AE5"/> <rect x="58.9994" y="54.496" width="3.00007" height="6.50015" fill="#DEA0E8"/> <rect x="62.0005" y="50.9991" width="3.00007" height="6.50015" fill="#DEA0E8"/> <rect x="65.0017" y="53.9962" width="3.00007" height="3.50008" fill="#DEA0E8"/> <rect x="56.0016" y="57.4971" width="3.00007" height="12.0003" fill="#DEA0E8"/> <rect x="99.0007" y="55.9967" width="3.00007" height="7.50017" fill="#D98AE6"/> <rect x="49.0011" y="95.0023" width="3.00007" height="6.00014" fill="#D98AE6"/> <rect x="51.9988" y="98.0016" width="3.00007" height="6.00014" fill="#D98AE6"/> <rect x="55.0006" y="100.999" width="3.00007" height="6.00014" fill="#D98AE6"/> <rect x="58.0004" y="103.997" width="3.00007" height="3.00007" fill="#D98AE6"/> <rect x="49.0011" y="92.0002" width="3.00007" height="3.00007" fill="#D98AE6"/> </svg>