<svg width="175" height="136" viewBox="0 0 175 136" fill="none" xmlns="http://www.w3.org/2000/svg">
<rect x="43" y="18" width="6" height="82" fill="#592671"/>
<rect x="7" y="136" width="6" height="144" transform="rotate(-90 7 136)" fill="#592671"/>
<rect x="61" y="6" width="6" height="96" transform="rotate(-90 61 6)" fill="#592671"/>
<rect x="169" y="18" width="6" height="100" fill="#592671"/>
<rect x="163" y="12" width="6" height="6" fill="#592671"/>
<rect x="49" y="12" width="6" height="6" fill="#592671"/>
<rect x="55" y="6" width="6" height="6" fill="#592671"/>
<rect x="151" y="124" width="12" height="6" fill="#592671"/>
<rect x="163" y="118" width="6" height="6" fill="#592671"/>
<rect x="157" y="6" width="6" height="6" fill="#592671"/>
<path d="M61 6H157V12H163V18H169V118H163V124H157H151V130H61V124H55V118H49V18H55V12H61V6Z" fill="#CD6FDC"/>
<rect x="69" y="31" width="80" height="80" fill="#B460C1"/>
<rect x="143" y="31" width="6" height="6.85714" fill="#CD6FDC"/>
<rect x="69" y="31" width="6" height="6.85714" fill="#CD6FDC"/>
<rect x="69" y="104.143" width="6" height="6.85714" fill="#CD6FDC"/>
<rect x="143" y="104.143" width="6" height="6.85714" fill="#CD6FDC"/>
<rect x="84" y="49" width="22" height="22" fill="#74407C"/>
<rect x="123" y="49" width="22" height="22" fill="#74407C"/>
<rect x="94" y="85" width="12" height="12" fill="#74407C"/>
<rect x="143" y="23" width="6" height="15" fill="#D98AE5"/>
<rect x="69" y="25" width="6" height="13" fill="#DEA0E8"/>
<rect x="75" y="18" width="6" height="13" fill="#DEA0E8"/>
<rect x="81" y="24" width="6" height="7" fill="#DEA0E8"/>
<rect x="63" y="31" width="6" height="24" fill="#DEA0E8"/>
<rect x="149" y="28" width="6" height="15" fill="#D98AE6"/>
<path d="M7 118H19V112H31V106H43V100H55V112H61V118H67V124H73V130H67H7V118Z" fill="#D98AE6"/>
<rect x="31" y="100" width="12" height="6" fill="#592671"/>
<rect x="19" y="106" width="12" height="6" fill="#592671"/>
<rect x="7" y="112" width="12" height="6" fill="#592671"/>
<rect x="1" y="118" width="6" height="12" fill="#592671"/>
<path d="M49 100H55V112H61V118H67V124H73V130H67V124H61V118H55V112H49V100Z" fill="#A668B0"/>
<rect x="49" y="100" width="6" height="12" fill="#592671"/>
</svg>
