<svg width="180" height="192" viewBox="0 0 180 192" fill="none" xmlns="http://www.w3.org/2000/svg">
<rect x="12" y="156" width="12" height="12" fill="#0F3E35"/>
<rect y="144" width="12" height="12" fill="#0F3E35"/>
<rect x="72" y="12" width="12" height="12" fill="#0F3E35"/>
<rect x="60" y="24" width="12" height="12" fill="#0F3E35"/>
<rect x="48" y="36" width="12" height="12" fill="#0F3E35"/>
<rect x="48" y="48" width="12" height="12" fill="#0F3E35"/>
<rect x="48" y="60" width="12" height="12" fill="#0F3E35"/>
<rect x="48" y="72" width="12" height="12" fill="#0F3E35"/>
<rect x="48" y="84" width="12" height="12" fill="#0F3E35"/>
<rect x="48" y="96" width="12" height="12" fill="#0F3E35"/>
<rect x="48" y="108" width="12" height="12" fill="#0F3E35"/>
<rect x="48" y="120" width="12" height="12" fill="#0F3E35"/>
<rect x="36" y="132" width="12" height="12" fill="#0F3E35"/>
<rect x="48" y="144" width="12" height="12" fill="#0F3E35"/>
<rect x="60" y="156" width="12" height="12" fill="#0F3E35"/>
<rect x="24" y="132" width="12" height="12" fill="#1D7867"/>
<rect x="12" y="132" width="12" height="12" fill="#5FE5DD"/>
<rect x="24" y="144" width="12" height="12" fill="#5FE5DD"/>
<rect x="36" y="144" width="12" height="12" fill="#1D7867"/>
<rect x="48" y="156" width="12" height="12" fill="#1D7867"/>
<rect x="36" y="156" width="12" height="12" fill="#1D7867"/>
<rect x="48" y="168" width="12" height="12" fill="#1D7867"/>
<rect x="60" y="168" width="12" height="12" fill="#1D7867"/>
<rect x="72" y="156" width="12" height="12" fill="#1D7867"/>
<rect x="72" y="168" width="12" height="12" fill="#1D7867"/>
<rect x="60" y="144" width="12" height="12" fill="#1D7867"/>
<rect x="60" y="132" width="12" height="12" fill="#1D7867"/>
<rect x="60" y="120" width="12" height="12" fill="#1D7867"/>
<rect x="60" y="96" width="12" height="12" fill="#1D7867"/>
<rect x="60" y="72" width="12" height="12" fill="#1D7867"/>
<rect x="48" y="132" width="12" height="12" fill="#1D7867"/>
<rect x="24" y="120" width="12" height="12" fill="#0F3E35"/>
<rect x="12" y="120" width="12" height="12" fill="#0F3E35"/>
<rect y="120" width="12" height="12" fill="#0F3E35"/>
<rect y="132" width="12" height="12" fill="#0F3E35"/>
<rect x="36" y="180" width="108" height="12" fill="#0F3E35"/>
<rect x="120" y="60" width="12" height="84" fill="#0F3E35"/>
<rect x="24" y="168" width="12" height="12" fill="#0F3E35"/>
<rect x="144" y="168" width="12" height="12" fill="#308085"/>
<rect x="156" y="156" width="12" height="12" fill="#308085"/>
<rect x="132" y="132" width="12" height="12" fill="#308085"/>
<rect x="120" y="144" width="12" height="12" fill="#308085"/>
<rect x="120" y="156" width="12" height="12" fill="#50C0BA"/>
<rect x="108" y="156" width="12" height="12" fill="#308085"/>
<rect x="168" y="144" width="12" height="12" fill="#308085"/>
<rect x="168" y="132" width="12" height="12" fill="#308085"/>
<rect x="168" y="120" width="12" height="12" fill="#308085"/>
<rect x="156" y="120" width="12" height="12" fill="#308085"/>
<rect x="144" y="120" width="12" height="12" fill="#308085"/>
<rect x="144" y="108" width="12" height="12" fill="#44BCB5"/>
<rect x="132" y="120" width="12" height="12" fill="#44BCB5"/>
<rect x="156" y="96" width="12" height="12" fill="#44BCB5"/>
<rect x="168" y="84" width="12" height="12" fill="#44BCB5"/>
<rect x="168" y="72" width="12" height="12" fill="#44BCB5"/>
<rect x="168" y="60" width="12" height="12" fill="#44BCB5"/>
<rect x="156" y="60" width="12" height="12" fill="#44BCB5"/>
<rect x="144" y="60" width="12" height="12" fill="#44BCB5"/>
<rect x="132" y="72" width="12" height="12" fill="#44BCB5"/>
<rect x="120" y="48" width="12" height="12" fill="#358489"/>
<rect x="120" y="36" width="12" height="12" fill="#358489"/>
<rect x="108" y="36" width="12" height="12" fill="#358489"/>
<rect x="96" y="48" width="12" height="12" fill="#358489"/>
<rect x="108" y="24" width="12" height="12" fill="#358489"/>
<rect x="96" y="12" width="12" height="12" fill="#358489"/>
<rect x="84" width="12" height="12" fill="#358489"/>
<rect x="24" y="156" width="12" height="12" fill="#DB74FF"/>
<rect x="60" y="84" width="12" height="12" fill="#DB74FF"/>
<rect x="60" y="108" width="12" height="12" fill="#CC39FF"/>
<rect x="144" y="132" width="12" height="12" fill="#5DE4DC"/>
<rect x="144" y="144" width="12" height="12" fill="#5DE4DC"/>
<rect x="132" y="144" width="12" height="12" fill="#5DE4DC"/>
<rect x="132" y="156" width="12" height="12" fill="#5DE4DC"/>
<rect x="132" y="168" width="12" height="12" fill="#44ABA5"/>
<rect x="144" y="156" width="12" height="12" fill="#44ABA5"/>
<rect x="156" y="144" width="12" height="12" fill="#44ABA5"/>
<rect x="120" y="168" width="12" height="12" fill="#5DE4DC"/>
<rect x="108" y="168" width="12" height="12" fill="#5DE4DC"/>
<rect x="96" y="156" width="12" height="12" fill="#5DE4DC"/>
<rect x="108" y="144" width="12" height="12" fill="#5DE4DC"/>
<rect x="96" y="132" width="12" height="12" fill="#5DE4DC"/>
<rect x="12" y="144" width="12" height="12" fill="#50C0BA"/>
<rect x="36" y="168" width="12" height="12" fill="#50C0BA"/>
<rect x="96" y="168" width="12" height="12" fill="#50C0BA"/>
<rect x="96" y="144" width="12" height="12" fill="#50C0BA"/>
<rect x="108" y="132" width="12" height="12" fill="#50C0BA"/>
<rect x="108" y="120" width="12" height="12" fill="#50C0BA"/>
<rect x="96" y="120" width="12" height="12" fill="#50C0BA"/>
<rect x="96" y="108" width="12" height="12" fill="#50C0BA"/>
<rect x="96" y="96" width="12" height="12" fill="#50C0BA"/>
<rect x="108" y="96" width="12" height="12" fill="#50C0BA"/>
<rect x="108" y="84" width="12" height="12" fill="#50C0BA"/>
<rect x="96" y="84" width="12" height="12" fill="#50C0BA"/>
<rect x="96" y="24" width="12" height="12" fill="#50C0BA"/>
<rect x="96" y="36" width="12" height="12" fill="#50C0BA"/>
<rect x="96" y="60" width="12" height="12" fill="#50C0BA"/>
<rect x="108" y="60" width="12" height="12" fill="#50C0BA"/>
<rect x="108" y="72" width="12" height="12" fill="#50C0BA"/>
<rect x="108" y="108" width="12" height="12" fill="#5DE4DC"/>
<rect x="60" y="36" width="12" height="12" fill="#65FFF6"/>
<rect x="72" y="48" width="12" height="12" fill="#65FFF6"/>
<rect x="84" y="48" width="12" height="12" fill="#65FFF6"/>
<rect x="84" y="72" width="12" height="108" fill="#65FFF6"/>
<rect x="84" y="60" width="12" height="12" fill="white"/>
<rect x="84" y="36" width="12" height="12" fill="#65FFF6"/>
<rect x="84" y="24" width="12" height="12" fill="#65FFF6"/>
<rect x="84" y="12" width="12" height="12" fill="#65FFF6"/>
<rect x="72" y="36" width="12" height="12" fill="#5DE4DC"/>
<rect x="72" y="24" width="12" height="12" fill="#5DE4DC"/>
<rect x="72" y="60" width="12" height="96" fill="#5FE6DD"/>
<rect x="60" y="60" width="12" height="12" fill="#21BBC5"/>
<rect x="60" y="48" width="12" height="12" fill="#21BBC5"/>
<rect x="96" y="72" width="12" height="12" fill="#68FFC9"/>
<rect x="108" y="48" width="12" height="12" fill="#68FFC9"/>
<rect x="156" y="72" width="12" height="12" fill="#68FFC9"/>
<rect x="144" y="72" width="12" height="12" fill="#5FE5DD"/>
<rect x="132" y="84" width="12" height="12" fill="#5FE5DD"/>
<rect x="144" y="84" width="12" height="12" fill="#5FE5DD"/>
<rect x="132" y="96" width="12" height="12" fill="#5FE5DD"/>
<rect x="132" y="108" width="12" height="12" fill="#50AEA9"/>
<rect x="156" y="84" width="12" height="12" fill="#50AEA9"/>
<rect x="144" y="96" width="12" height="12" fill="#50AEA9"/>
<rect x="156" y="132" width="12" height="12" fill="#68FFC9"/>
</svg>
