<svg width="130" height="130" viewBox="0 0 130 130" fill="none" xmlns="http://www.w3.org/2000/svg"> <rect width="130" height="130" fill="#397B44"/> <rect x="122" y="33" width="5" height="10" fill="#265C42"/> <rect x="117" y="28" width="5" height="5" fill="#265C42"/> <rect x="117" y="33" width="5" height="10" fill="#3E8948"/> <rect x="41" y="10" width="5" height="10" fill="#265C42"/> <rect x="36" y="5" width="5" height="5" fill="#265C42"/> <rect x="36" y="43" width="5" height="5" fill="#265C42"/> <rect x="115" y="84" width="5" height="5" fill="#265C42"/> <rect x="106" y="5" width="5" height="5" fill="#265C42"/> <rect x="43" y="113" width="5" height="5" fill="#265C42"/> <rect x="15" y="70" width="5" height="5" fill="#265C42"/> <rect x="36" y="10" width="5" height="10" fill="#3E8948"/> <rect x="51" y="79" width="5" height="10" fill="#265C42"/> <rect x="46" y="74" width="5" height="5" fill="#265C42"/> <rect x="46" y="79" width="5" height="10" fill="#3E8948"/> <rect x="32" y="35.9991" width="3.00007" height="50.0012" fill="#592671"/> <rect x="41.0006" y="95.0014" width="3.00007" height="48.0011" transform="rotate(-90 41.0006 95.0014)" fill="#592671"/> <rect x="41.0006" y="30.0002" width="3.00007" height="48.0011" transform="rotate(-90 41.0006 30.0002)" fill="#592671"/> <rect x="94.9998" y="35.9991" width="3.00007" height="50.0012" fill="#592671"/> <rect x="92.0018" y="33.0013" width="3.00007" height="3.00007" fill="#592671"/> <rect x="35.0012" y="33.0013" width="3.00007" height="3.00007" fill="#592671"/> <rect x="35.0012" y="85.9987" width="3.00007" height="3.00007" fill="#592671"/> <rect x="37.9988" y="88.9966" width="3.00007" height="3.00007" fill="#592671"/> <rect x="38" y="92" width="3.00007" height="3.00007" fill="#265C42"/> <rect x="38" y="95" width="3.00007" height="3.00007" fill="#3E8948"/> <rect x="89" y="95" width="3.00007" height="3.00007" fill="#3E8948"/> <rect x="92" y="92.0001" width="3.00007" height="3.00007" fill="#3E8948"/> <rect x="95" y="89.0004" width="3.00007" height="3.00007" fill="#3E8948"/> <rect x="35" y="92" width="3.00007" height="3.00007" fill="#3E8948"/> <rect x="32" y="92.0001" width="3.00007" height="3.00007" fill="#3E8948"/> <rect x="35" y="95.0001" width="3.00007" height="3.00007" fill="#3E8948"/> <rect x="35" y="98.0001" width="3.00007" height="3.00007" fill="#3E8948"/> <rect x="29" y="89.0001" width="3.00007" height="3.00007" fill="#3E8948"/> <rect x="35" y="89" width="3.00007" height="3.00007" fill="#265C42"/> <rect x="89" y="92" width="3.00007" height="3.00007" fill="#265C42"/> <rect x="92" y="88.9999" width="3.00007" height="3.00007" fill="#265C42"/> <rect x="95" y="86.0001" width="3.00007" height="3.00007" fill="#265C42"/> <rect x="41" y="95" width="48" height="3" fill="#265C42"/> <rect x="37.9988" y="30.0002" width="3.00007" height="3.00007" fill="#592671"/> <rect x="89.0013" y="88.9967" width="3.00007" height="3.00007" fill="#592671"/> <rect x="92.0018" y="85.9987" width="3.00007" height="3.00007" fill="#592671"/> <rect x="89.0013" y="30.0002" width="3.00007" height="3.00007" fill="#592671"/> <path d="M41.0013 30.0002H89.0024V33.0003H92.0025V36.0003H95.0026V86.0014H92.0025V89.0015H89.0024V92.0016H41.0013V89.0015H38.0012V86.0014H35.0012V36.0003H38.0012V33.0003H41.0013V30.0002Z" fill="#CD6FDC"/> <rect x="44.9993" y="42.4971" width="40.0009" height="40.0009" fill="#B460C1"/> <rect x="82.0018" y="42.4972" width="3.00007" height="3.42865" fill="#CD6FDC"/> <rect x="44.9993" y="42.4971" width="3.00007" height="3.42865" fill="#CD6FDC"/> <rect x="44.9993" y="79.0703" width="3.00007" height="3.42865" fill="#CD6FDC"/> <rect x="82.0018" y="79.0703" width="3.00007" height="3.42865" fill="#CD6FDC"/> <rect x="48.5007" y="51.5004" width="11.0003" height="11.0003" fill="#74407C"/> <rect x="70.4994" y="51.5004" width="11.0003" height="11.0003" fill="#74407C"/> <rect x="53.4991" y="69.499" width="6.00014" height="6.00014" fill="#74407C"/> <rect x="82.0019" y="38.4967" width="3.00007" height="7.50017" fill="#D98AE5"/> <rect x="44.9993" y="39.496" width="3.00007" height="6.50015" fill="#DEA0E8"/> <rect x="48.0005" y="35.9991" width="3.00007" height="6.50015" fill="#DEA0E8"/> <rect x="51.0016" y="38.9962" width="3.00007" height="3.50008" fill="#DEA0E8"/> <rect x="42.0015" y="42.4971" width="3.00007" height="12.0003" fill="#DEA0E8"/> <rect x="85.0007" y="40.9967" width="3.00007" height="7.50017" fill="#D98AE6"/> <rect x="35.0012" y="80.0023" width="3.00007" height="6.00014" fill="#D98AE6"/> <rect x="37.9988" y="83.0016" width="3.00007" height="6.00014" fill="#D98AE6"/> <rect x="41.0006" y="85.9987" width="3.00007" height="6.00014" fill="#D98AE6"/> <rect x="44.0003" y="88.9967" width="3.00007" height="3.00007" fill="#D98AE6"/> <rect x="35.0012" y="77.0002" width="3.00007" height="3.00007" fill="#D98AE6"/> </svg>