<svg width="130" height="130" viewBox="0 0 130 130" fill="none" xmlns="http://www.w3.org/2000/svg"> <rect width="130" height="130" fill="#397B44"/> <rect x="101" y="33" width="5" height="10" fill="#265C42"/> <rect x="96" y="28" width="5" height="5" fill="#265C42"/> <rect x="96" y="33" width="5" height="10" fill="#3E8948"/> <rect x="41" y="10" width="5" height="10" fill="#265C42"/> <rect x="36" y="5" width="5" height="5" fill="#265C42"/> <rect x="36" y="43" width="5" height="5" fill="#265C42"/> <rect x="115" y="84" width="5" height="5" fill="#265C42"/> <rect x="106" y="5" width="5" height="5" fill="#265C42"/> <rect x="43" y="104" width="5" height="5" fill="#265C42"/> <rect x="15" y="70" width="5" height="5" fill="#265C42"/> <rect x="36" y="10" width="5" height="10" fill="#3E8948"/> <rect x="51" y="79" width="5" height="10" fill="#265C42"/> <rect x="46" y="74" width="5" height="5" fill="#265C42"/> <rect x="46" y="79" width="5" height="10" fill="#3E8948"/> </svg>