<svg width="130" height="130" viewBox="0 0 130 130" fill="none" xmlns="http://www.w3.org/2000/svg"> <rect width="130" height="130" fill="#397B44"/> <rect x="32" y="15" width="5" height="10" fill="#265C42"/> <rect x="27" y="10" width="5" height="5" fill="#265C42"/> <rect x="27" y="15" width="5" height="10" fill="#3E8948"/> <rect x="111" y="41" width="5" height="10" fill="#265C42"/> <rect x="106" y="36" width="5" height="5" fill="#265C42"/> <rect x="106" y="41" width="5" height="10" fill="#3E8948"/> <rect x="63" y="82" width="5" height="10" fill="#265C42"/> <rect x="58" y="77" width="5" height="5" fill="#265C42"/> <rect x="53" y="42" width="5" height="5" fill="#265C42"/> <rect x="108" y="112" width="5" height="5" fill="#265C42"/> <rect x="58" y="82" width="5" height="10" fill="#3E8948"/> <path d="M10 50H15V45H20V40H25V45H20V50H15V55H10V50Z" fill="#71AA34"/> <rect x="15" y="120" width="5" height="5" fill="#71AA34"/> <rect x="10" y="95" width="5" height="5" fill="#71AA34"/> <rect x="5" y="95" width="5" height="5" fill="#265C42"/> <rect x="10" y="100" width="5" height="5" fill="#265C42"/> <rect x="15" y="105" width="5" height="5" fill="#265C42"/> <rect x="10" y="110" width="5" height="5" fill="#265C42"/> <rect x="5" y="115" width="5" height="5" fill="#265C42"/> <rect x="10" y="120" width="5" height="5" fill="#265C42"/> <rect x="15" y="125" width="5" height="5" fill="#265C42"/> <rect x="10" y="90" width="5" height="5" fill="#265C42"/> <rect x="15" y="85" width="5" height="5" fill="#265C42"/> <rect x="15" y="80" width="5" height="5" fill="#265C42"/> <rect x="10" y="75" width="5" height="5" fill="#265C42"/> <rect x="5" y="70" width="5" height="5" fill="#265C42"/> <rect x="10" y="65" width="5" height="5" fill="#265C42"/> <rect x="15" y="60" width="5" height="5" fill="#265C42"/> <rect x="10" y="55" width="5" height="5" fill="#265C42"/> <rect x="5" y="50" width="5" height="5" fill="#265C42"/> <rect x="10" y="45" width="5" height="5" fill="#265C42"/> <rect x="15" y="40" width="5" height="5" fill="#265C42"/> <rect x="15" y="35" width="5" height="5" fill="#265C42"/> <rect x="10" y="30" width="5" height="5" fill="#265C42"/> <rect x="5" y="25" width="5" height="5" fill="#265C42"/> <rect x="10" y="20" width="5" height="5" fill="#265C42"/> <rect x="15" y="15" width="5" height="5" fill="#265C42"/> <rect x="10" y="10" width="5" height="5" fill="#265C42"/> <rect x="5" y="5" width="5" height="5" fill="#265C42"/> <rect x="10" width="5" height="5" fill="#265C42"/> <rect y="95" width="5" height="5" fill="#754C2F"/> <rect x="5" y="90" width="5" height="5" fill="#754C2F"/> <rect x="5" y="100" width="5" height="5" fill="#754C2F"/> <rect x="5" y="110" width="5" height="5" fill="#754C2F"/> <rect y="115" width="5" height="5" fill="#754C2F"/> <rect x="5" y="120" width="5" height="5" fill="#754C2F"/> <rect x="10" y="85" width="5" height="5" fill="#754C2F"/> <rect x="10" y="80" width="5" height="5" fill="#754C2F"/> <rect x="10" y="105" width="5" height="5" fill="#754C2F"/> <rect x="10" y="125" width="5" height="5" fill="#754C2F"/> <rect x="5" y="75" width="5" height="5" fill="#754C2F"/> <rect y="70" width="5" height="5" fill="#754C2F"/> <rect x="5" y="65" width="5" height="5" fill="#754C2F"/> <rect x="10" y="60" width="5" height="5" fill="#754C2F"/> <rect x="5" y="55" width="5" height="5" fill="#754C2F"/> <rect y="50" width="5" height="5" fill="#754C2F"/> <rect x="5" y="45" width="5" height="5" fill="#754C2F"/> <rect x="10" y="40" width="5" height="5" fill="#754C2F"/> <rect x="10" y="35" width="5" height="5" fill="#754C2F"/> <rect x="5" y="30" width="5" height="5" fill="#754C2F"/> <rect y="25" width="5" height="5" fill="#754C2F"/> <rect x="5" y="20" width="5" height="5" fill="#754C2F"/> <rect x="10" y="15" width="5" height="5" fill="#754C2F"/> <rect x="5" y="10" width="5" height="5" fill="#754C2F"/> <rect y="5" width="5" height="5" fill="#754C2F"/> <rect x="5" width="5" height="5" fill="#754C2F"/> <rect y="90" width="5" height="5" fill="#8E5A36"/> <rect y="100" width="5" height="5" fill="#8E5A36"/> <rect y="110" width="5" height="5" fill="#8E5A36"/> <rect y="120" width="5" height="5" fill="#8E5A36"/> <rect x="5" y="85" width="5" height="5" fill="#8E5A36"/> <rect x="5" y="80" width="5" height="5" fill="#8E5A36"/> <rect x="5" y="105" width="5" height="5" fill="#8E5A36"/> <rect x="5" y="125" width="5" height="5" fill="#8E5A36"/> <rect y="75" width="5" height="5" fill="#8E5A36"/> <rect y="65" width="5" height="5" fill="#8E5A36"/> <rect x="5" y="60" width="5" height="5" fill="#8E5A36"/> <rect y="55" width="5" height="5" fill="#8E5A36"/> <rect y="45" width="5" height="5" fill="#8E5A36"/> <rect x="5" y="40" width="5" height="5" fill="#8E5A36"/> <rect x="5" y="35" width="5" height="5" fill="#8E5A36"/> <rect y="30" width="5" height="5" fill="#8E5A36"/> <rect y="20" width="5" height="5" fill="#8E5A36"/> <rect x="5" y="15" width="5" height="5" fill="#8E5A36"/> <rect y="10" width="5" height="5" fill="#8E5A36"/> <rect width="5" height="5" fill="#8E5A36"/> <rect y="85" width="5" height="5" fill="#AA6A3E"/> <rect y="80" width="5" height="5" fill="#AA6A3E"/> <rect y="105" width="5" height="5" fill="#AA6A3E"/> <rect y="125" width="5" height="5" fill="#AA6A3E"/> <rect y="60" width="5" height="5" fill="#AA6A3E"/> <rect y="40" width="5" height="5" fill="#AA6A3E"/> <rect y="35" width="5" height="5" fill="#AA6A3E"/> <rect y="15" width="5" height="5" fill="#AA6A3E"/> </svg>