<svg width="102" height="100" viewBox="0 0 102 100" fill="none" xmlns="http://www.w3.org/2000/svg">
<rect x="15.3334" y="78.2424" width="3.83333" height="7.92314" fill="#B64FAB"/>
<path d="M0 78.2431H3.83333V74.2815H19.1667V78.2431H15.3333V86.1662H11.5V78.2431H3.83333V90.1278H15.3333V86.1662H19.1667V78.2431H23V90.1278H19.1667H15.3333V94.0894H3.83333V90.1278H0V78.2431Z" fill="#300047"/>
<path d="M3.83328 78.2424H11.4999V86.1656H15.3333V90.1272H3.83328V78.2424Z" fill="#DD7979"/>
<path d="M24 92.5H27.8333V88.75H31.6667V85H43.1667V88.75H47V100H43.1667V88.75H31.6667V92.5H39.3333V96.25H27.8333V100H24V92.5Z" fill="#300047"/>
<rect x="27.8334" y="96.2493" width="11.5" height="3.75" fill="#DD7979"/>
<path d="M31.6667 88.7495H43.1667V99.9995H39.3334V92.4995H31.6667V88.7495Z" fill="#B64FAB"/>
<path d="M54 88.75H57.8571V85H69.4286V88.75H77.1429V92.5H81V100H77.1429V92.5H69.4286V96.25H65.5714V92.5H69.4286V88.75H57.8571V100H54V88.75Z" fill="#300047"/>
<path d="M57.8571 88.7495H65.5714V92.4995H61.7143V96.2495H65.5714V99.9995H57.8571V88.7495Z" fill="#41657E"/>
<path d="M65.5714 96.2499H73.2857V92.4999H77.1429V99.9999H65.5714V96.2499Z" fill="#568EAD"/>
<rect x="61.7142" y="92.4999" width="3.85714" height="3.75" fill="#568EAD"/>
<path d="M65.5714 88.7495H69.4286V92.4995H73.2857V96.2495H69.4286V92.4995H65.5714V88.7495Z" fill="#607784"/>
<path d="M82.4798 77.2512H86.2798V73.2897H97.6798V77.2512H101.48V89.136H97.6798V77.2512H93.8798V85.1744H90.0798V77.2512H86.2798V85.1744H90.0798V89.136H97.6798V93.0975H90.0798V89.136H86.2798V85.1744H82.4798V77.2512Z" fill="#300047"/>
<path d="M97.6797 77.2516H93.8797V85.1747H90.0797V89.1363H97.6797V77.2516Z" fill="#4EC0CF"/>
<rect x="86.2798" y="77.2516" width="3.8" height="7.92314" fill="#41657E"/>
<path d="M6.60378 47.5221H10.45V43.5619H14.2962V31.6814H18.1423V39.6017H25.8347V43.5619H14.2962V47.5221H10.45V55.4424H14.2962V59.4026H25.8347V43.5619H29.6809V59.4026H25.8347V63.3628H18.1423V67.323H25.8347V75.2433H21.9885V71.2831H18.1423V67.323H14.2962V59.4026H10.45V55.4424H6.60378V47.5221Z" fill="#300047"/>
<rect x="18.1423" y="27.7212" width="3.84619" height="3.96017" fill="#300047"/>
<rect x="48.9119" y="15.8407" width="3.84619" height="7.92035" fill="#300047"/>
<rect x="45.2815" y="11.8849" width="11.4797" height="3.96157" fill="#300047"/>
<rect x="45.2815" width="11.4797" height="3.96157" fill="#300047"/>
<rect x="41.455" y="3.96198" width="3.82656" height="7.92314" fill="#300047"/>
<rect x="56.7612" y="3.96204" width="3.82656" height="7.92314" fill="#300047"/>
<rect x="45.2815" y="3.96204" width="7.65313" height="7.92314" fill="#FF9B3F"/>
<rect x="52.9346" y="3.96204" width="3.82656" height="7.92314" fill="#FFE092"/>
<rect x="25" y="75" width="55" height="4" fill="#300047"/>
<rect x="21.9885" y="23.761" width="57.6929" height="3.96017" fill="#300047"/>
<path d="M37.3733 27.7212H79.6814V75.2433H37.3733V73.2632V71.2831H75.8352V31.6814H41.2195V71.2831H37.3733V27.7212Z" fill="#A2EEDC"/>
<path d="M10.45 47.5221H14.2961V43.5619H21.9885V47.5221H18.1423V55.4424H21.9885V59.4026H14.2961V55.4424H10.45V47.5221Z" fill="#6EB5DD"/>
<path d="M18.1423 31.6814H21.9885V27.7212H37.3733V31.6814V39.6017V75.2433H25.8347V67.3229H18.1423V63.3628H25.8347V59.4026H29.6809V39.6017V43.5619H25.8347V39.6017H21.9885H18.1423V31.6814Z" fill="#6EB5DD"/>
<path d="M21.9885 43.5619H25.8347V59.4026H21.9885V55.4424H18.1423V47.5221H21.9885V43.5619Z" fill="#A2EEDC"/>
<path d="M41.2195 31.6814H75.8352V35.6416V71.2831H71.989V35.6416H41.2195V31.6814Z" fill="#FF9B3F"/>
<path d="M41.2195 35.6416H71.989V43.562V47.4851H68.1428V55.4425H71.989V59.4026H68.1428V67.323H71.989V71.2832H68.1428H41.2195V67.323H48.9119V59.4026H41.2195V43.562H52.7581V47.4851H45.0657V55.4425H52.7581V43.562H41.2195V35.6416Z" fill="#FFF27E"/>
<path d="M45.0657 47.5221L52.7581 47.5221L52.7581 55.4424H45.0657L45.0657 47.5221Z" fill="#77BB6C"/>
<rect x="68.1428" y="47.5221" width="3.84619" height="7.92035" fill="#77BB6C"/>
<rect x="68.1428" y="59.4026" width="3.84619" height="7.92035" fill="#DE7D7D"/>
<rect x="41.2195" y="59.4026" width="7.69238" height="7.92035" fill="#DE7D7D"/>
<rect x="83.5276" y="44.552" width="3.84619" height="19.8009" fill="#300047"/>
<rect x="79.6814" y="27.7212" width="3.84619" height="47.5221" fill="#300047"/>
</svg>
