<svg width="69" height="74" viewBox="0 0 69 74" fill="none" xmlns="http://www.w3.org/2000/svg">
<rect x="3" y="8.99902" width="3.00007" height="50.0012" fill="#592671"/>
<rect x="12.0006" y="68.0013" width="3.00007" height="48.0011" transform="rotate(-90 12.0006 68.0013)" fill="#592671"/>
<rect x="12.0006" y="3.00012" width="3.00007" height="48.0011" transform="rotate(-90 12.0006 3.00012)" fill="#592671"/>
<rect x="65.9998" y="8.99902" width="3.00007" height="50.0012" fill="#592671"/>
<rect x="63.0017" y="6.00122" width="3.00007" height="3.00007" fill="#592671"/>
<rect x="6.0011" y="6.00122" width="3.00007" height="3.00007" fill="#592671"/>
<rect x="6.0011" y="58.9985" width="3.00007" height="3.00007" fill="#592671"/>
<rect x="8.99878" y="61.9965" width="3.00007" height="3.00007" fill="#592671"/>
<rect x="9" y="64.9999" width="3.00007" height="3.00007" fill="#265C42"/>
<rect x="9" y="67.9999" width="3.00007" height="3.00007" fill="#3E8948"/>
<rect x="60" y="67.9999" width="3.00007" height="3.00007" fill="#3E8948"/>
<rect x="63" y="65" width="3.00007" height="3.00007" fill="#3E8948"/>
<rect x="66" y="62.0002" width="3.00007" height="3.00007" fill="#3E8948"/>
<rect x="6" y="64.9999" width="3.00007" height="3.00007" fill="#3E8948"/>
<rect x="3" y="65" width="3.00007" height="3.00007" fill="#3E8948"/>
<rect x="6" y="68" width="3.00007" height="3.00007" fill="#3E8948"/>
<rect x="6" y="71" width="3.00007" height="3.00007" fill="#3E8948"/>
<rect y="62" width="3.00007" height="3.00007" fill="#3E8948"/>
<rect x="6" y="61.9999" width="3.00007" height="3.00007" fill="#265C42"/>
<rect x="60" y="64.9999" width="3.00007" height="3.00007" fill="#265C42"/>
<rect x="63" y="61.9998" width="3.00007" height="3.00007" fill="#265C42"/>
<rect x="66" y="59" width="3.00007" height="3.00007" fill="#265C42"/>
<rect x="12" y="67.9999" width="48" height="3" fill="#265C42"/>
<rect x="8.99878" y="3.00012" width="3.00007" height="3.00007" fill="#592671"/>
<rect x="60.0013" y="61.9966" width="3.00007" height="3.00007" fill="#592671"/>
<rect x="63.0017" y="58.9985" width="3.00007" height="3.00007" fill="#592671"/>
<rect x="60.0013" y="3.00012" width="3.00007" height="3.00007" fill="#592671"/>
<path d="M12.0012 3.00012H60.0024V6.00019H63.0024V9.00026H66.0025V59.0014H63.0024V62.0015H60.0024V65.0015H12.0012V62.0015H9.00117V59.0014H6.0011V9.00026H9.00117V6.00019H12.0012V3.00012Z" fill="#CD6FDC"/>
<rect x="15.9993" y="15.4969" width="40.0009" height="40.0009" fill="#B460C1"/>
<rect x="53.0018" y="15.4969" width="3.00007" height="3.42865" fill="#CD6FDC"/>
<rect x="15.9993" y="15.4969" width="3.00007" height="3.42865" fill="#CD6FDC"/>
<rect x="15.9993" y="52.0701" width="3.00007" height="3.42865" fill="#CD6FDC"/>
<rect x="53.0018" y="52.0701" width="3.00007" height="3.42865" fill="#CD6FDC"/>
<rect x="19.5006" y="24.5002" width="11.0003" height="11.0003" fill="#74407C"/>
<rect x="41.4993" y="24.5002" width="11.0003" height="11.0003" fill="#74407C"/>
<rect x="24.499" y="42.4988" width="6.00014" height="6.00014" fill="#74407C"/>
<rect x="53.002" y="11.4966" width="3.00007" height="7.50017" fill="#D98AE5"/>
<rect x="15.9993" y="12.4958" width="3.00007" height="6.50015" fill="#DEA0E8"/>
<rect x="19.0005" y="8.99902" width="3.00007" height="6.50015" fill="#DEA0E8"/>
<rect x="22.0017" y="11.9961" width="3.00007" height="3.50008" fill="#DEA0E8"/>
<rect x="13.0016" y="15.4969" width="3.00007" height="12.0003" fill="#DEA0E8"/>
<rect x="56.0007" y="13.9966" width="3.00007" height="7.50017" fill="#D98AE6"/>
<rect x="6.0011" y="53.0022" width="3.00007" height="6.00014" fill="#D98AE6"/>
<rect x="8.99878" y="56.0015" width="3.00007" height="6.00014" fill="#D98AE6"/>
<rect x="12.0006" y="58.9985" width="3.00007" height="6.00014" fill="#D98AE6"/>
<rect x="15.0002" y="61.9966" width="3.00007" height="3.00007" fill="#D98AE6"/>
<rect x="6.0011" y="50.0001" width="3.00007" height="3.00007" fill="#D98AE6"/>
</svg>
