<svg width="100" height="100" viewBox="0 0 100 100" fill="none" xmlns="http://www.w3.org/2000/svg">
<rect x="15.3334" y="77.2643" width="3.83333" height="7.35854" fill="#B64FAB"/>
<path d="M0 77.2649H3.83333V73.5856H19.1667V77.2649H15.3333V84.6234H11.5V77.2649H3.83333V88.3027H15.3333V84.6234H19.1667V77.2649H23V88.3027H19.1667H15.3333V91.982H3.83333V88.3027H0V77.2649Z" fill="#300047"/>
<path d="M3.83328 77.2643H11.4999V84.6229H15.3333V88.3022H3.83328V77.2643Z" fill="#DD7979"/>
<path d="M23 92.5H26.8333V88.75H30.6667V85H42.1667V88.75H46V100H42.1667V88.75H30.6667V92.5H38.3333V96.25H26.8333V100H23V92.5Z" fill="#300047"/>
<rect x="26.8334" y="96.2491" width="11.5" height="3.75" fill="#DD7979"/>
<path d="M30.6667 88.7495H42.1667V99.9995H38.3334V92.4995H30.6667V88.7495Z" fill="#B64FAB"/>
<path d="M53 88.75H56.8571V85H68.4286V88.75H76.1429V92.5H80V100H76.1429V92.5H68.4286V96.25H64.5714V92.5H68.4286V88.75H56.8571V100H53V88.75Z" fill="#300047"/>
<path d="M56.8571 88.7494H64.5714V92.4994H60.7143V96.2494H64.5714V99.9994H56.8571V88.7494Z" fill="#41657E"/>
<path d="M64.5715 96.2498H72.2857V92.4998H76.1429V99.9998H64.5715V96.2498Z" fill="#568EAD"/>
<rect x="60.7142" y="92.4998" width="3.85714" height="3.75" fill="#568EAD"/>
<path d="M64.5715 88.7494H68.4286V92.4994H72.2857V96.2494H68.4286V92.4994H64.5715V88.7494Z" fill="#607784"/>
<path d="M80.7692 73.5853H84.5692V69.906H95.9692V73.5853H99.7692V84.6231H95.9692V73.5853H92.1692V80.9438H88.3692V73.5853H84.5692V80.9438H88.3692V84.6231H95.9692V88.3024H88.3692V84.6231H84.5692V80.9438H80.7692V73.5853Z" fill="#300047"/>
<path d="M95.9692 73.5856H92.1692V80.9441H88.3692V84.6234H95.9692V73.5856Z" fill="#4EC0CF"/>
<rect x="84.5692" y="73.5856" width="3.8" height="7.35854" fill="#41657E"/>
<path d="M3.8461 47.83H7.69225V44.1508H11.5384V33.113H15.3846V40.4715H23.0769V44.1508H11.5384V47.83H7.69225V55.1886H11.5384V58.8679H23.0769V44.1508H26.923V58.8679H23.0769V62.5471H15.3846V66.2264H23.0769V73.585H19.2307V69.9057H15.3846V66.2264H11.5384V58.8679H7.69225V55.1886H3.8461V47.83Z" fill="#300047"/>
<rect x="15.3847" y="29.4342" width="3.84615" height="3.67927" fill="#300047"/>
<rect x="46.1538" y="14.7167" width="3.84615" height="11.0378" fill="#300047"/>
<rect x="42.3077" y="11.0381" width="11.5385" height="3.67927" fill="#300047"/>
<rect x="42.3077" width="11.5385" height="3.67927" fill="#300047"/>
<rect x="38.4616" y="3.67963" width="3.84615" height="7.35854" fill="#300047"/>
<rect x="53.8462" y="3.67963" width="3.84615" height="7.35854" fill="#300047"/>
<rect x="42.3077" y="3.67963" width="7.69231" height="7.35854" fill="#FF9B3F"/>
<rect x="50" y="3.67963" width="3.84615" height="7.35854" fill="#FFE092"/>
<rect x="23.0769" y="73.5856" width="53.8462" height="3.67927" fill="#300047"/>
<rect x="19.2308" y="25.7547" width="57.6923" height="3.67927" fill="#300047"/>
<rect x="76.9231" y="29.4342" width="3.84615" height="44.1512" fill="#300047"/>
<rect x="80.7692" y="45.0708" width="3.84615" height="18.3964" fill="#300047"/>
<path d="M34.6153 29.4342H76.923V73.5855H34.6153V71.7458V69.9062H73.0769V33.1135H38.4615V69.9062H34.6153V29.4342Z" fill="#A2EEDC"/>
<path d="M7.69235 47.8306H11.5385V44.1513H19.2308V47.8306H15.3847V55.1891H19.2308V58.8684H11.5385V55.1891H7.69235V47.8306Z" fill="#6EB5DD"/>
<path d="M15.3847 33.1135H19.2308V29.4342H34.6154V33.1135V40.472V73.5855H23.077V66.2269H15.3847V62.5476H23.077V58.8684H26.9231V40.472V44.1513H23.077V40.472H19.2308H15.3847V33.1135Z" fill="#6EB5DD"/>
<path d="M19.2308 44.1513H23.077V58.8684H19.2308V55.1891H15.3847V47.8306H19.2308V44.1513Z" fill="#A2EEDC"/>
<path d="M38.4616 33.113H73.077V36.7922V69.9057H69.2308V36.7922H38.4616V33.113Z" fill="#FF9B3F"/>
<path d="M38.4616 36.7925H69.2308V44.151H65.3847V55.1888H69.2308V58.8681H65.3847V66.2267H69.2308V69.9059H65.3847H38.4616V66.2267H46.1539V58.8681H38.4616V47.8303H42.3077V55.1888H50V44.151H38.4616V36.7925Z" fill="#FFF27E"/>
<path d="M38.4616 44.1513H50V55.1891H42.3077V47.8306H38.4616V44.1513Z" fill="#77BB6C"/>
<rect x="65.3847" y="44.1513" width="3.84615" height="11.0378" fill="#77BB6C"/>
<rect x="65.3847" y="58.8683" width="3.84615" height="7.35854" fill="#DE7D7D"/>
<rect x="38.4616" y="58.8683" width="7.69231" height="7.35854" fill="#DE7D7D"/>
</svg>
