<svg width="102" height="100" viewBox="0 0 102 100" fill="none" xmlns="http://www.w3.org/2000/svg">
<rect x="15.3334" y="77.2643" width="3.83333" height="7.35854" fill="#B64FAB"/>
<path d="M0 77.2649H3.83333V73.5856H19.1667V77.2649H15.3333V84.6234H11.5V77.2649H3.83333V88.3027H15.3333V84.6234H19.1667V77.2649H23V88.3027H19.1667H15.3333V91.982H3.83333V88.3027H0V77.2649Z" fill="#300047"/>
<path d="M3.83328 77.2643H11.4999V84.6229H15.3333V88.3022H3.83328V77.2643Z" fill="#DD7979"/>
<path d="M25 92.5H28.8333V88.75H32.6667V85H44.1667V88.75H48V100H44.1667V88.75H32.6667V92.5H40.3333V96.25H28.8333V100H25V92.5Z" fill="#300047"/>
<rect x="28.8334" y="96.2491" width="11.5" height="3.75" fill="#DD7979"/>
<path d="M32.6667 88.7495H44.1667V99.9995H40.3334V92.4995H32.6667V88.7495Z" fill="#B64FAB"/>
<path d="M55 88.75H58.8571V85H70.4286V88.75H78.1429V92.5H82V100H78.1429V92.5H70.4286V96.25H66.5714V92.5H70.4286V88.75H58.8571V100H55V88.75Z" fill="#300047"/>
<path d="M58.8571 88.7495H66.5714V92.4995H62.7143V96.2495H66.5714V99.9995H58.8571V88.7495Z" fill="#41657E"/>
<path d="M66.5715 96.2498H74.2857V92.4998H78.1429V99.9998H66.5715V96.2498Z" fill="#568EAD"/>
<rect x="62.7142" y="92.4998" width="3.85714" height="3.75" fill="#568EAD"/>
<path d="M66.5715 88.7495H70.4286V92.4995H74.2857V96.2495H70.4286V92.4995H66.5715V88.7495Z" fill="#607784"/>
<path d="M82.7692 73.5853H86.5692V69.906H97.9692V73.5853H101.769V84.6231H97.9692V73.5853H94.1692V80.9438H90.3692V73.5853H86.5692V80.9438H90.3692V84.6231H97.9692V88.3024H90.3692V84.6231H86.5692V80.9438H82.7692V73.5853Z" fill="#300047"/>
<path d="M97.9692 73.5856H94.1692V80.9441H90.3692V84.6234H97.9692V73.5856Z" fill="#4EC0CF"/>
<rect x="86.5692" y="73.5856" width="3.8" height="7.35854" fill="#41657E"/>
<path d="M5.8461 47.83H9.69225V44.1508H13.5384V33.113H17.3846V40.4715H25.0769V44.1508H13.5384V47.83H9.69225V55.1886H13.5384V58.8679H25.0769V44.1508H28.923V58.8679H25.0769V62.5471H17.3846V66.2264H25.0769V73.585H21.2307V69.9057H17.3846V66.2264H13.5384V58.8679H9.69225V55.1886H5.8461V47.83Z" fill="#300047"/>
<rect x="17.3847" y="29.4342" width="3.84615" height="3.67927" fill="#300047"/>
<rect x="48.1538" y="14.7167" width="3.84615" height="11.0378" fill="#300047"/>
<rect x="44.3077" y="11.0381" width="11.5385" height="3.67927" fill="#300047"/>
<rect x="44.3077" width="11.5385" height="3.67927" fill="#300047"/>
<rect x="40.4616" y="3.67963" width="3.84615" height="7.35854" fill="#300047"/>
<rect x="55.8462" y="3.67963" width="3.84615" height="7.35854" fill="#300047"/>
<rect x="44.3077" y="3.67963" width="7.69231" height="7.35854" fill="#FF9B3F"/>
<rect x="52" y="3.67963" width="3.84615" height="7.35854" fill="#FFE092"/>
<rect x="25.0769" y="73.5856" width="53.8462" height="3.67927" fill="#300047"/>
<rect x="21.2308" y="25.7547" width="57.6923" height="3.67927" fill="#300047"/>
<rect x="78.9231" y="29.4342" width="3.84615" height="44.1512" fill="#300047"/>
<rect x="82.7692" y="45.0708" width="3.84615" height="18.3964" fill="#300047"/>
<path d="M36.6153 29.4342H78.923V73.5855H36.6153V71.7458V69.9062H75.0769V33.1135H40.4615V69.9062H36.6153V29.4342Z" fill="#A2EEDC"/>
<path d="M9.69235 47.8306H13.5385V44.1513H21.2308V47.8306H17.3847V55.1891H21.2308V58.8684H13.5385V55.1891H9.69235V47.8306Z" fill="#6EB5DD"/>
<path d="M17.3847 33.1135H21.2308V29.4342H36.6154V33.1135V40.472V73.5855H25.077V66.2269H17.3847V62.5476H25.077V58.8684H28.9231V40.472V44.1513H25.077V40.472H21.2308H17.3847V33.1135Z" fill="#6EB5DD"/>
<path d="M21.2308 44.1513H25.077V58.8684H21.2308V55.1891H17.3847V47.8306H21.2308V44.1513Z" fill="#A2EEDC"/>
<path d="M40.4616 33.113H75.077V36.7922V69.9057H71.2308V36.7922H40.4616V33.113Z" fill="#FF9B3F"/>
<path d="M40.4616 36.7925H71.2308V44.151V51H67.3847V55.1888H71.2308V58.8681H67.3847V66.2267H71.2308V69.9059H67.3847H40.4616V66.2267H48.1539V58.8681H40.4616V44.151H52L52 51H40.4616V55.1888H52V44.151H40.4616V36.7925Z" fill="#FFF27E"/>
<path d="M40.4616 50.9999L52 51V55.1891H44.3077H40.4616V50.9999Z" fill="#77BB6C"/>
<path d="M67.3847 50.9999H71.2308V55.1891H67.3847V50.9999Z" fill="#77BB6C"/>
<rect x="67.3847" y="58.8683" width="3.84615" height="7.35854" fill="#DE7D7D"/>
<rect x="40.4616" y="58.8683" width="7.69231" height="7.35854" fill="#DE7D7D"/>
</svg>
