<svg width="100" height="100" viewBox="0 0 100 100" fill="none" xmlns="http://www.w3.org/2000/svg">
<rect width="100" height="100" fill="#437618"/>
<rect x="75" y="38" width="5" height="5" fill="#5AA31C"/>
<rect x="70" y="33" width="5" height="5" fill="#5AA31C"/>
<rect x="70" y="38" width="5" height="5" fill="#3A4F2A"/>
<rect x="75" y="33" width="5" height="5" fill="#6DC821"/>
<rect x="22" y="14" width="5" height="5" transform="rotate(-90 22 14)" fill="#5AA31C"/>
<rect x="17" y="19" width="5" height="5" transform="rotate(-90 17 19)" fill="#5AA31C"/>
<rect x="22" y="19" width="5" height="5" transform="rotate(-90 22 19)" fill="#3A4F2A"/>
<rect x="17" y="14" width="5" height="5" transform="rotate(-90 17 14)" fill="#6DC821"/>
<rect x="5" y="100" width="5" height="5" transform="rotate(-180 5 100)" fill="#BD732E"/>
<rect x="25" y="100" width="5" height="5" transform="rotate(-180 25 100)" fill="#BD732E"/>
<rect x="55" y="100" width="5" height="5" transform="rotate(-180 55 100)" fill="#BD732E"/>
<rect x="85" y="100" width="5" height="5" transform="rotate(-180 85 100)" fill="#BD732E"/>
<rect x="10" y="100" width="5" height="5" transform="rotate(-180 10 100)" fill="#BD732E"/>
<rect x="10" y="95" width="5" height="5" transform="rotate(-180 10 95)" fill="#BD732E"/>
<rect x="30" y="95" width="5" height="5" transform="rotate(-180 30 95)" fill="#BD732E"/>
<rect x="50" y="95" width="5" height="5" transform="rotate(-180 50 95)" fill="#BD732E"/>
<rect x="70" y="95" width="5" height="5" transform="rotate(-180 70 95)" fill="#BD732E"/>
<rect x="90" y="95" width="5" height="5" transform="rotate(-180 90 95)" fill="#BD732E"/>
<rect x="15" y="95" width="5" height="5" transform="rotate(-180 15 95)" fill="#BD732E"/>
<rect x="5" y="95" width="5" height="5" transform="rotate(-180 5 95)" fill="#834811"/>
<rect x="10" y="90" width="5" height="5" transform="rotate(-180 10 90)" fill="#834811"/>
<rect x="15" y="85" width="5" height="5" transform="rotate(-180 15 85)" fill="#834811"/>
<rect x="75" y="85" width="5" height="5" transform="rotate(-180 75 85)" fill="#834811"/>
<rect x="20" y="90" width="5" height="5" transform="rotate(-180 20 90)" fill="#834811"/>
<rect x="25" y="95" width="5" height="5" transform="rotate(-180 25 95)" fill="#834811"/>
<rect x="10" y="95" width="5" height="5" transform="rotate(-180 10 95)" fill="#673508"/>
<rect x="30" y="95" width="5" height="5" transform="rotate(-180 30 95)" fill="#673508"/>
<rect x="50" y="95" width="5" height="5" transform="rotate(-180 50 95)" fill="#673508"/>
<rect x="70" y="95" width="5" height="5" transform="rotate(-180 70 95)" fill="#673508"/>
<rect x="90" y="95" width="5" height="5" transform="rotate(-180 90 95)" fill="#673508"/>
<rect x="30" y="90" width="5" height="5" transform="rotate(-180 30 90)" fill="#834811"/>
<rect x="35" y="85" width="5" height="5" transform="rotate(-180 35 85)" fill="#834811"/>
<rect x="95" y="85" width="5" height="5" transform="rotate(-180 95 85)" fill="#834811"/>
<rect x="40" y="90" width="5" height="5" transform="rotate(-180 40 90)" fill="#834811"/>
<rect x="45" y="95" width="5" height="5" transform="rotate(-180 45 95)" fill="#834811"/>
<rect x="50" y="90" width="5" height="5" transform="rotate(-180 50 90)" fill="#834811"/>
<rect x="55" y="85" width="5" height="5" transform="rotate(-180 55 85)" fill="#834811"/>
<rect x="70" y="90" width="5" height="5" transform="rotate(-180 70 90)" fill="#834811"/>
<rect x="80" y="90" width="5" height="5" transform="rotate(-180 80 90)" fill="#834811"/>
<rect x="90" y="90" width="5" height="5" transform="rotate(-180 90 90)" fill="#834811"/>
<rect x="100" y="90" width="5" height="5" transform="rotate(-180 100 90)" fill="#834811"/>
<rect x="85" y="95" width="5" height="5" transform="rotate(-180 85 95)" fill="#834811"/>
<rect x="60" y="90" width="5" height="5" transform="rotate(-180 60 90)" fill="#834811"/>
<rect x="65" y="95" width="5" height="5" transform="rotate(-180 65 95)" fill="#834811"/>
<rect x="35" y="95" width="5" height="5" transform="rotate(-180 35 95)" fill="#BD732E"/>
<rect x="55" y="95" width="5" height="5" transform="rotate(-180 55 95)" fill="#BD732E"/>
<rect x="75" y="95" width="5" height="5" transform="rotate(-180 75 95)" fill="#BD732E"/>
<rect x="95" y="95" width="5" height="5" transform="rotate(-180 95 95)" fill="#BD732E"/>
<rect x="15" y="90" width="5" height="5" transform="rotate(-180 15 90)" fill="#BD732E"/>
<rect x="35" y="90" width="5" height="5" transform="rotate(-180 35 90)" fill="#BD732E"/>
<rect x="55" y="90" width="5" height="5" transform="rotate(-180 55 90)" fill="#BD732E"/>
<rect x="75" y="90" width="5" height="5" transform="rotate(-180 75 90)" fill="#BD732E"/>
<rect x="95" y="90" width="5" height="5" transform="rotate(-180 95 90)" fill="#BD732E"/>
<rect x="20" y="95" width="5" height="5" transform="rotate(-180 20 95)" fill="#BD732E"/>
<rect x="40" y="95" width="5" height="5" transform="rotate(-180 40 95)" fill="#BD732E"/>
<rect x="60" y="95" width="5" height="5" transform="rotate(-180 60 95)" fill="#BD732E"/>
<rect x="80" y="95" width="5" height="5" transform="rotate(-180 80 95)" fill="#BD732E"/>
<rect x="100" y="95" width="5" height="5" transform="rotate(-180 100 95)" fill="#BD732E"/>
<rect x="30" y="100" width="5" height="5" transform="rotate(-180 30 100)" fill="#BD732E"/>
<rect x="60" y="100" width="5" height="5" transform="rotate(-180 60 100)" fill="#BD732E"/>
<rect x="90" y="100" width="5" height="5" transform="rotate(-180 90 100)" fill="#BD732E"/>
<rect x="15" y="100" width="5" height="5" transform="rotate(-180 15 100)" fill="#BD732E"/>
<rect x="45" y="100" width="5" height="5" transform="rotate(-180 45 100)" fill="#BD732E"/>
<rect x="75" y="100" width="5" height="5" transform="rotate(-180 75 100)" fill="#BD732E"/>
<rect x="35" y="100" width="5" height="5" transform="rotate(-180 35 100)" fill="#BD732E"/>
<rect x="65" y="100" width="5" height="5" transform="rotate(-180 65 100)" fill="#BD732E"/>
<rect x="95" y="100" width="5" height="5" transform="rotate(-180 95 100)" fill="#BD732E"/>
<rect x="20" y="100" width="5" height="5" transform="rotate(-180 20 100)" fill="#BD732E"/>
<rect x="50" y="100" width="5" height="5" transform="rotate(-180 50 100)" fill="#BD732E"/>
<rect x="80" y="100" width="5" height="5" transform="rotate(-180 80 100)" fill="#BD732E"/>
<rect x="40" y="100" width="5" height="5" transform="rotate(-180 40 100)" fill="#BD732E"/>
<rect x="70" y="100" width="5" height="5" transform="rotate(-180 70 100)" fill="#BD732E"/>
<rect x="100" y="100" width="5" height="5" transform="rotate(-180 100 100)" fill="#BD732E"/>
<rect x="15" y="90" width="5" height="5" transform="rotate(-180 15 90)" fill="#673508"/>
<rect x="26" y="52" width="5" height="5" transform="rotate(-180 26 52)" fill="#5AA31C"/>
<rect x="95" y="6" width="5" height="5" fill="#5AA31C"/>
<rect x="90" y="11" width="5" height="5" fill="#5AA31C"/>
<rect x="90" y="16" width="5" height="5" fill="#5AA31C"/>
<rect x="31" y="57" width="5" height="5" transform="rotate(-180 31 57)" fill="#5AA31C"/>
<rect x="90" y="85" width="5" height="5" transform="rotate(-180 90 85)" fill="#5AA31C"/>
<rect x="95" y="80" width="5" height="5" transform="rotate(-180 95 80)" fill="#5AA31C"/>
<rect x="55" y="80" width="5" height="5" transform="rotate(-180 55 80)" fill="#5AA31C"/>
<rect x="35" y="80" width="5" height="5" transform="rotate(-180 35 80)" fill="#5AA31C"/>
<rect x="10" y="85" width="5" height="5" transform="rotate(-180 10 85)" fill="#5AA31C"/>
<rect x="15" y="80" width="5" height="5" transform="rotate(-180 15 80)" fill="#5AA31C"/>
<rect x="25" y="85" width="5" height="5" transform="rotate(-180 25 85)" fill="#5AA31C"/>
<rect x="45" y="85" width="5" height="5" transform="rotate(-180 45 85)" fill="#5AA31C"/>
<rect x="70" y="85" width="5" height="5" transform="rotate(-180 70 85)" fill="#5AA31C"/>
<rect x="75" y="80" width="5" height="5" transform="rotate(-180 75 80)" fill="#5AA31C"/>
<rect x="85" y="85" width="5" height="5" transform="rotate(-180 85 85)" fill="#5AA31C"/>
<rect x="30" y="85" width="5" height="5" transform="rotate(-180 30 85)" fill="#5AA31C"/>
<rect x="50" y="85" width="5" height="5" transform="rotate(-180 50 85)" fill="#5AA31C"/>
<rect x="31" y="52" width="5" height="5" transform="rotate(-180 31 52)" fill="#3A4F2A"/>
<rect x="20" y="85" width="5" height="5" transform="rotate(-180 20 85)" fill="#26681B"/>
<rect x="5" y="90" width="5" height="5" transform="rotate(-180 5 90)" fill="#26681B"/>
<rect x="25" y="90" width="5" height="5" transform="rotate(-180 25 90)" fill="#26681B"/>
<rect x="40" y="85" width="5" height="5" transform="rotate(-180 40 85)" fill="#26681B"/>
<rect x="45" y="90" width="5" height="5" transform="rotate(-180 45 90)" fill="#26681B"/>
<rect x="60" y="85" width="5" height="5" transform="rotate(-180 60 85)" fill="#26681B"/>
<rect x="65" y="90" width="5" height="5" transform="rotate(-180 65 90)" fill="#26681B"/>
<rect x="80" y="85" width="5" height="5" transform="rotate(-180 80 85)" fill="#26681B"/>
<rect x="85" y="90" width="5" height="5" transform="rotate(-180 85 90)" fill="#26681B"/>
<rect x="100" y="85" width="5" height="5" transform="rotate(-180 100 85)" fill="#26681B"/>
<rect x="26" y="57" width="5" height="5" transform="rotate(-180 26 57)" fill="#6DC821"/>
</svg>
