<svg width="100" height="100" viewBox="0 0 100 100" fill="none" xmlns="http://www.w3.org/2000/svg">
<rect x="100" width="100" height="100" transform="rotate(90 100 0)" fill="#437618"/>
<rect x="63" y="59" width="5" height="5" transform="rotate(90 63 59)" fill="#5AA31C"/>
<rect x="68" y="54" width="5" height="5" transform="rotate(90 68 54)" fill="#5AA31C"/>
<rect x="63" y="54" width="5" height="5" transform="rotate(90 63 54)" fill="#3A4F2A"/>
<rect x="68" y="59" width="5" height="5" transform="rotate(90 68 59)" fill="#6DC821"/>
<rect x="86" y="22" width="5" height="5" fill="#5AA31C"/>
<rect x="81" y="17" width="5" height="5" fill="#5AA31C"/>
<rect x="81" y="22" width="5" height="5" fill="#3A4F2A"/>
<rect x="86" y="17" width="5" height="5" fill="#6DC821"/>
<rect x="48" y="26" width="5" height="5" transform="rotate(-90 48 26)" fill="#5AA31C"/>
<rect x="94" y="95" width="5" height="5" transform="rotate(90 94 95)" fill="#5AA31C"/>
<rect x="89" y="90" width="5" height="5" transform="rotate(90 89 90)" fill="#5AA31C"/>
<rect x="84" y="90" width="5" height="5" transform="rotate(90 84 90)" fill="#5AA31C"/>
<rect x="43" y="31" width="5" height="5" transform="rotate(-90 43 31)" fill="#5AA31C"/>
<rect x="48" y="31" width="5" height="5" transform="rotate(-90 48 31)" fill="#3A4F2A"/>
<rect y="10" width="5" height="5" transform="rotate(-90 0 10)" fill="#834811"/>
<rect x="5" y="15" width="5" height="5" transform="rotate(-90 5 15)" fill="#834811"/>
<rect x="5" y="75" width="5" height="5" transform="rotate(-90 5 75)" fill="#834811"/>
<rect y="20" width="5" height="5" transform="rotate(-90 0 20)" fill="#834811"/>
<rect y="30" width="5" height="5" transform="rotate(-90 0 30)" fill="#834811"/>
<rect x="5" y="35" width="5" height="5" transform="rotate(-90 5 35)" fill="#834811"/>
<rect x="5" y="95" width="5" height="5" transform="rotate(-90 5 95)" fill="#834811"/>
<rect y="40" width="5" height="5" transform="rotate(-90 0 40)" fill="#834811"/>
<rect y="50" width="5" height="5" transform="rotate(-90 0 50)" fill="#834811"/>
<rect x="5" y="55" width="5" height="5" transform="rotate(-90 5 55)" fill="#834811"/>
<rect y="70" width="5" height="5" transform="rotate(-90 0 70)" fill="#834811"/>
<rect y="80" width="5" height="5" transform="rotate(-90 0 80)" fill="#834811"/>
<rect y="90" width="5" height="5" transform="rotate(-90 0 90)" fill="#834811"/>
<rect y="100" width="5" height="5" transform="rotate(-90 0 100)" fill="#834811"/>
<rect y="60" width="5" height="5" transform="rotate(-90 0 60)" fill="#834811"/>
<rect y="15" width="5" height="5" transform="rotate(-90 0 15)" fill="#BD732E"/>
<rect y="35" width="5" height="5" transform="rotate(-90 0 35)" fill="#BD732E"/>
<rect y="55" width="5" height="5" transform="rotate(-90 0 55)" fill="#BD732E"/>
<rect y="75" width="5" height="5" transform="rotate(-90 0 75)" fill="#BD732E"/>
<rect y="95" width="5" height="5" transform="rotate(-90 0 95)" fill="#BD732E"/>
<rect y="15" width="5" height="5" transform="rotate(-90 0 15)" fill="#673508"/>
<rect x="5" y="90" width="5" height="5" transform="rotate(-90 5 90)" fill="#5AA31C"/>
<rect x="10" y="95" width="5" height="5" transform="rotate(-90 10 95)" fill="#5AA31C"/>
<rect x="10" y="55" width="5" height="5" transform="rotate(-90 10 55)" fill="#5AA31C"/>
<rect x="10" y="35" width="5" height="5" transform="rotate(-90 10 35)" fill="#5AA31C"/>
<rect x="5" y="10" width="5" height="5" transform="rotate(-90 5 10)" fill="#5AA31C"/>
<rect x="10" y="15" width="5" height="5" transform="rotate(-90 10 15)" fill="#5AA31C"/>
<rect x="5" y="25" width="5" height="5" transform="rotate(-90 5 25)" fill="#5AA31C"/>
<rect x="5" y="45" width="5" height="5" transform="rotate(-90 5 45)" fill="#5AA31C"/>
<rect x="5" y="70" width="5" height="5" transform="rotate(-90 5 70)" fill="#5AA31C"/>
<rect x="10" y="75" width="5" height="5" transform="rotate(-90 10 75)" fill="#5AA31C"/>
<rect x="5" y="85" width="5" height="5" transform="rotate(-90 5 85)" fill="#5AA31C"/>
<rect x="5" y="30" width="5" height="5" transform="rotate(-90 5 30)" fill="#5AA31C"/>
<rect x="5" y="50" width="5" height="5" transform="rotate(-90 5 50)" fill="#5AA31C"/>
<rect x="5" y="20" width="5" height="5" transform="rotate(-90 5 20)" fill="#26681B"/>
<rect y="5" width="5" height="5" transform="rotate(-90 0 5)" fill="#26681B"/>
<rect y="25" width="5" height="5" transform="rotate(-90 0 25)" fill="#26681B"/>
<rect x="5" y="40" width="5" height="5" transform="rotate(-90 5 40)" fill="#26681B"/>
<rect y="45" width="5" height="5" transform="rotate(-90 0 45)" fill="#26681B"/>
<rect x="5" y="60" width="5" height="5" transform="rotate(-90 5 60)" fill="#26681B"/>
<rect y="65" width="5" height="5" transform="rotate(-90 0 65)" fill="#26681B"/>
<rect x="5" y="80" width="5" height="5" transform="rotate(-90 5 80)" fill="#26681B"/>
<rect y="85" width="5" height="5" transform="rotate(-90 0 85)" fill="#26681B"/>
<rect x="5" y="100" width="5" height="5" transform="rotate(-90 5 100)" fill="#26681B"/>
<rect x="43" y="26" width="5" height="5" transform="rotate(-90 43 26)" fill="#6DC821"/>
<rect x="5" y="100" width="5" height="5" transform="rotate(-180 5 100)" fill="#BD732E"/>
<rect x="25" y="100" width="5" height="5" transform="rotate(-180 25 100)" fill="#BD732E"/>
<rect x="55" y="100" width="5" height="5" transform="rotate(-180 55 100)" fill="#BD732E"/>
<rect x="85" y="100" width="5" height="5" transform="rotate(-180 85 100)" fill="#BD732E"/>
<rect x="10" y="100" width="5" height="5" transform="rotate(-180 10 100)" fill="#BD732E"/>
<rect x="10" y="95" width="5" height="5" transform="rotate(-180 10 95)" fill="#BD732E"/>
<rect x="30" y="95" width="5" height="5" transform="rotate(-180 30 95)" fill="#BD732E"/>
<rect x="50" y="95" width="5" height="5" transform="rotate(-180 50 95)" fill="#BD732E"/>
<rect x="70" y="95" width="5" height="5" transform="rotate(-180 70 95)" fill="#BD732E"/>
<rect x="90" y="95" width="5" height="5" transform="rotate(-180 90 95)" fill="#BD732E"/>
<rect x="15" y="95" width="5" height="5" transform="rotate(-180 15 95)" fill="#BD732E"/>
<rect x="5" y="95" width="5" height="5" transform="rotate(-180 5 95)" fill="#834811"/>
<rect x="10" y="90" width="5" height="5" transform="rotate(-180 10 90)" fill="#834811"/>
<rect x="15" y="85" width="5" height="5" transform="rotate(-180 15 85)" fill="#834811"/>
<rect x="75" y="85" width="5" height="5" transform="rotate(-180 75 85)" fill="#834811"/>
<rect x="20" y="90" width="5" height="5" transform="rotate(-180 20 90)" fill="#834811"/>
<rect x="25" y="95" width="5" height="5" transform="rotate(-180 25 95)" fill="#834811"/>
<rect x="10" y="95" width="5" height="5" transform="rotate(-180 10 95)" fill="#673508"/>
<rect x="30" y="95" width="5" height="5" transform="rotate(-180 30 95)" fill="#673508"/>
<rect x="50" y="95" width="5" height="5" transform="rotate(-180 50 95)" fill="#673508"/>
<rect x="70" y="95" width="5" height="5" transform="rotate(-180 70 95)" fill="#673508"/>
<rect x="90" y="95" width="5" height="5" transform="rotate(-180 90 95)" fill="#673508"/>
<rect x="30" y="90" width="5" height="5" transform="rotate(-180 30 90)" fill="#834811"/>
<rect x="35" y="85" width="5" height="5" transform="rotate(-180 35 85)" fill="#834811"/>
<rect x="95" y="85" width="5" height="5" transform="rotate(-180 95 85)" fill="#834811"/>
<rect x="40" y="90" width="5" height="5" transform="rotate(-180 40 90)" fill="#834811"/>
<rect x="45" y="95" width="5" height="5" transform="rotate(-180 45 95)" fill="#834811"/>
<rect x="50" y="90" width="5" height="5" transform="rotate(-180 50 90)" fill="#834811"/>
<rect x="55" y="85" width="5" height="5" transform="rotate(-180 55 85)" fill="#834811"/>
<rect x="70" y="90" width="5" height="5" transform="rotate(-180 70 90)" fill="#834811"/>
<rect x="80" y="90" width="5" height="5" transform="rotate(-180 80 90)" fill="#834811"/>
<rect x="90" y="90" width="5" height="5" transform="rotate(-180 90 90)" fill="#834811"/>
<rect x="100" y="90" width="5" height="5" transform="rotate(-180 100 90)" fill="#834811"/>
<rect x="85" y="95" width="5" height="5" transform="rotate(-180 85 95)" fill="#834811"/>
<rect x="60" y="90" width="5" height="5" transform="rotate(-180 60 90)" fill="#834811"/>
<rect x="65" y="95" width="5" height="5" transform="rotate(-180 65 95)" fill="#834811"/>
<rect x="35" y="95" width="5" height="5" transform="rotate(-180 35 95)" fill="#BD732E"/>
<rect x="55" y="95" width="5" height="5" transform="rotate(-180 55 95)" fill="#BD732E"/>
<rect x="75" y="95" width="5" height="5" transform="rotate(-180 75 95)" fill="#BD732E"/>
<rect x="95" y="95" width="5" height="5" transform="rotate(-180 95 95)" fill="#BD732E"/>
<rect x="15" y="90" width="5" height="5" transform="rotate(-180 15 90)" fill="#BD732E"/>
<rect x="35" y="90" width="5" height="5" transform="rotate(-180 35 90)" fill="#BD732E"/>
<rect x="55" y="90" width="5" height="5" transform="rotate(-180 55 90)" fill="#BD732E"/>
<rect x="75" y="90" width="5" height="5" transform="rotate(-180 75 90)" fill="#BD732E"/>
<rect x="95" y="90" width="5" height="5" transform="rotate(-180 95 90)" fill="#BD732E"/>
<rect x="20" y="95" width="5" height="5" transform="rotate(-180 20 95)" fill="#BD732E"/>
<rect x="40" y="95" width="5" height="5" transform="rotate(-180 40 95)" fill="#BD732E"/>
<rect x="60" y="95" width="5" height="5" transform="rotate(-180 60 95)" fill="#BD732E"/>
<rect x="80" y="95" width="5" height="5" transform="rotate(-180 80 95)" fill="#BD732E"/>
<rect x="100" y="95" width="5" height="5" transform="rotate(-180 100 95)" fill="#BD732E"/>
<rect x="30" y="100" width="5" height="5" transform="rotate(-180 30 100)" fill="#BD732E"/>
<rect x="60" y="100" width="5" height="5" transform="rotate(-180 60 100)" fill="#BD732E"/>
<rect x="90" y="100" width="5" height="5" transform="rotate(-180 90 100)" fill="#BD732E"/>
<rect x="15" y="100" width="5" height="5" transform="rotate(-180 15 100)" fill="#BD732E"/>
<rect x="45" y="100" width="5" height="5" transform="rotate(-180 45 100)" fill="#BD732E"/>
<rect x="75" y="100" width="5" height="5" transform="rotate(-180 75 100)" fill="#BD732E"/>
<rect x="35" y="100" width="5" height="5" transform="rotate(-180 35 100)" fill="#BD732E"/>
<rect x="65" y="100" width="5" height="5" transform="rotate(-180 65 100)" fill="#BD732E"/>
<rect x="95" y="100" width="5" height="5" transform="rotate(-180 95 100)" fill="#BD732E"/>
<rect x="20" y="100" width="5" height="5" transform="rotate(-180 20 100)" fill="#BD732E"/>
<rect x="50" y="100" width="5" height="5" transform="rotate(-180 50 100)" fill="#BD732E"/>
<rect x="80" y="100" width="5" height="5" transform="rotate(-180 80 100)" fill="#BD732E"/>
<rect x="40" y="100" width="5" height="5" transform="rotate(-180 40 100)" fill="#BD732E"/>
<rect x="70" y="100" width="5" height="5" transform="rotate(-180 70 100)" fill="#BD732E"/>
<rect x="100" y="100" width="5" height="5" transform="rotate(-180 100 100)" fill="#BD732E"/>
<rect x="15" y="90" width="5" height="5" transform="rotate(-180 15 90)" fill="#673508"/>
<rect x="90" y="85" width="5" height="5" transform="rotate(-180 90 85)" fill="#5AA31C"/>
<rect x="95" y="80" width="5" height="5" transform="rotate(-180 95 80)" fill="#5AA31C"/>
<rect x="55" y="80" width="5" height="5" transform="rotate(-180 55 80)" fill="#5AA31C"/>
<rect x="35" y="80" width="5" height="5" transform="rotate(-180 35 80)" fill="#5AA31C"/>
<rect x="10" y="85" width="5" height="5" transform="rotate(-180 10 85)" fill="#5AA31C"/>
<rect x="15" y="80" width="5" height="5" transform="rotate(-180 15 80)" fill="#5AA31C"/>
<rect x="25" y="85" width="5" height="5" transform="rotate(-180 25 85)" fill="#5AA31C"/>
<rect x="45" y="85" width="5" height="5" transform="rotate(-180 45 85)" fill="#5AA31C"/>
<rect x="70" y="85" width="5" height="5" transform="rotate(-180 70 85)" fill="#5AA31C"/>
<rect x="75" y="80" width="5" height="5" transform="rotate(-180 75 80)" fill="#5AA31C"/>
<rect x="85" y="85" width="5" height="5" transform="rotate(-180 85 85)" fill="#5AA31C"/>
<rect x="30" y="85" width="5" height="5" transform="rotate(-180 30 85)" fill="#5AA31C"/>
<rect x="50" y="85" width="5" height="5" transform="rotate(-180 50 85)" fill="#5AA31C"/>
<rect x="20" y="85" width="5" height="5" transform="rotate(-180 20 85)" fill="#26681B"/>
<rect x="5" y="90" width="5" height="5" transform="rotate(-180 5 90)" fill="#26681B"/>
<rect x="25" y="90" width="5" height="5" transform="rotate(-180 25 90)" fill="#26681B"/>
<rect x="40" y="85" width="5" height="5" transform="rotate(-180 40 85)" fill="#26681B"/>
<rect x="45" y="90" width="5" height="5" transform="rotate(-180 45 90)" fill="#26681B"/>
<rect x="60" y="85" width="5" height="5" transform="rotate(-180 60 85)" fill="#26681B"/>
<rect x="65" y="90" width="5" height="5" transform="rotate(-180 65 90)" fill="#26681B"/>
<rect x="80" y="85" width="5" height="5" transform="rotate(-180 80 85)" fill="#26681B"/>
<rect x="85" y="90" width="5" height="5" transform="rotate(-180 85 90)" fill="#26681B"/>
<rect x="100" y="85" width="5" height="5" transform="rotate(-180 100 85)" fill="#26681B"/>
</svg>
