<svg width="100" height="100" viewBox="0 0 100 100" fill="none" xmlns="http://www.w3.org/2000/svg">
<rect width="100" height="100" fill="#437618"/>
<rect x="75" y="38" width="5" height="5" fill="#5AA31C"/>
<rect x="70" y="33" width="5" height="5" fill="#5AA31C"/>
<rect x="70" y="38" width="5" height="5" fill="#3A4F2A"/>
<rect x="75" y="33" width="5" height="5" fill="#6DC821"/>
<rect x="22" y="14" width="5" height="5" transform="rotate(-90 22 14)" fill="#5AA31C"/>
<rect x="17" y="19" width="5" height="5" transform="rotate(-90 17 19)" fill="#5AA31C"/>
<rect x="22" y="19" width="5" height="5" transform="rotate(-90 22 19)" fill="#3A4F2A"/>
<rect x="17" y="14" width="5" height="5" transform="rotate(-90 17 14)" fill="#6DC821"/>
<rect x="29" y="74" width="5" height="5" transform="rotate(-180 29 74)" fill="#5AA31C"/>
<rect x="34" y="79" width="5" height="5" transform="rotate(-180 34 79)" fill="#5AA31C"/>
<rect x="34" y="74" width="5" height="5" transform="rotate(-180 34 74)" fill="#3A4F2A"/>
<rect x="29" y="79" width="5" height="5" transform="rotate(-180 29 79)" fill="#6DC821"/>
<rect x="70" y="72" width="5" height="5" transform="rotate(-180 70 72)" fill="#5AA31C"/>
<rect x="5" y="93" width="5" height="5" transform="rotate(-180 5 93)" fill="#5AA31C"/>
<rect x="10" y="88" width="5" height="10" transform="rotate(-180 10 88)" fill="#5AA31C"/>
<rect x="95" y="6" width="5" height="5" fill="#5AA31C"/>
<rect x="90" y="11" width="5" height="10" fill="#5AA31C"/>
<rect x="75" y="77" width="5" height="5" transform="rotate(-180 75 77)" fill="#5AA31C"/>
<rect x="75" y="72" width="5" height="5" transform="rotate(-180 75 72)" fill="#3A4F2A"/>
<rect x="70" y="77" width="5" height="5" transform="rotate(-180 70 77)" fill="#6DC821"/>
</svg>
