<svg width="130" height="130" viewBox="0 0 130 130" fill="none" xmlns="http://www.w3.org/2000/svg">
<rect width="130" height="130" fill="#397B44"/>
<rect x="25" y="15" width="5" height="10" fill="#265C42"/>
<rect x="20" y="10" width="5" height="5" fill="#265C42"/>
<rect x="20" y="15" width="5" height="10" fill="#3E8948"/>
<rect x="111" y="41" width="5" height="10" fill="#265C42"/>
<rect x="106" y="36" width="5" height="5" fill="#265C42"/>
<rect x="106" y="41" width="5" height="10" fill="#3E8948"/>
<path d="M20 125V120H25H30V115H35V120H40V125H45V120H50V115H60V120H65V125H70V120H75V115H80V120H85V125V130H20V125Z" fill="#C67A44"/>
<path d="M20 120H25V115H30V110H35V115H40V120H45V115H50V110H60V115H65V120H70V115H75V110H80V115H85V120H80V115H75V120H70V125H65V120H60V115H50V120H45V125H40V120H35V115H30V120H25V125H20V120Z" fill="#AA6A3E"/>
<path d="M20 115H25V110H30V105H35V110H40V115H45V110H50V105H60V110H65V115H70V110H75V105H80V110H85V115H80V110H75V115H70V120H65V115H60V110H50V115H45V120H40V115H35V110H30V115H25V120H20V115Z" fill="#8E5A36"/>
<path d="M20 110H25V105H30V100H35V105H40V110H45V105H50V100H60V105H65V110H70V105H75V100H80V105H85V110H80V105H75V110H70V115H65V110H60V105H50V110H45V115H40V110H35V105H30V110H25V115H20V110Z" fill="#754C2F"/>
<path d="M20 105H25V100H30V95H35V100H40V105H45V100H50V95H60V100H65V105H70V100H75V95H80V100H85V105H80V100H75V105H70V110H65V105H60V100H50V105H45V110H40V105H35V100H30V105H25V110H20V105Z" fill="#265C42"/>
<path d="M20 100H25V95H30V90H35V95H40V100H45V95H50V90H60V95H65V100H70V95H75V90H80V95H85V100H80V95H75V100H70V105H65V100H60V95H50V100H45V105H40V100H35V95H30V100H25V105H20V100Z" fill="#3E8948"/>
<path d="M20 95H25V90H30V95H25V100H20V95Z" fill="#71AA34"/>
<path d="M40 95H45V90H50V85H55V90H50V95H45V100H40V95Z" fill="#71AA34"/>
<path d="M10 50H15V45H20V40H25V45H20V50H15V55H10V50Z" fill="#71AA34"/>
<rect x="65" y="95" width="5" height="5" fill="#71AA34"/>
<path d="M65 125V120H70H75V115H80V120H85V125H90V120H95V115H105V120H110V125H115V120H120V115H125V120H130V125V130H65V125Z" fill="#C67A44"/>
<path d="M65 120H70V115H75V110H80V115H85V120H90V115H95V110H105V115H110V120H115V115H120V110H125V115H130V120H125V115H120V120H115V125H110V120H105V115H95V120H90V125H85V120H80V115H75V120H70V125H65V120Z" fill="#AA6A3E"/>
<path d="M65 115H70V110H75V105H80V110H85V115H90V110H95V105H105V110H110V115H115V110H120V105H125V110H130V115H125V110H120V115H115V120H110V115H105V110H95V115H90V120H85V115H80V110H75V115H70V120H65V115Z" fill="#8E5A36"/>
<path d="M65 110H70V105H75V100H80V105H85V110H90V105H95V100H105V105H110V110H115V105H120V100H125V105H130V110H125V105H120V110H115V115H110V110H105V105H95V110H90V115H85V110H80V105H75V110H70V115H65V110Z" fill="#754C2F"/>
<path d="M65 105H70V100H75V95H80V100H85V105H90V100H95V95H105V100H110V105H115V100H120V95H125V100H130V105H125V100H120V105H115V110H110V105H105V100H95V105H90V110H85V105H80V100H75V105H70V110H65V105Z" fill="#265C42"/>
<path d="M65 100H70V95H75V90H80V95H85V100H90V95H95V90H105V95H110V100H115V95H120V90H125V95H130V100H125V95H120V100H115V105H110V100H105V95H95V100H90V105H85V100H80V95H75V100H70V105H65V100Z" fill="#3E8948"/>
<path d="M65 95H70V90H75V95H70V100H65V95Z" fill="#71AA34"/>
<path d="M85 95H90V90H95V85H100V90H95V95H90V100H85V95Z" fill="#71AA34"/>
<rect x="110" y="95" width="5" height="5" fill="#71AA34"/>
<rect x="120" y="70" width="5" height="5" fill="#71AA34"/>
<rect x="15" y="105" width="5" height="5" fill="#265C42"/>
<rect x="10" y="100" width="5" height="5" fill="#265C42"/>
<rect x="5" y="95" width="5" height="5" fill="#265C42"/>
<rect x="10" y="90" width="5" height="5" fill="#265C42"/>
<rect x="15" y="85" width="5" height="5" fill="#265C42"/>
<rect x="15" y="80" width="5" height="5" fill="#265C42"/>
<rect x="10" y="75" width="5" height="5" fill="#265C42"/>
<rect x="5" y="70" width="5" height="5" fill="#265C42"/>
<rect x="10" y="65" width="5" height="5" fill="#265C42"/>
<rect x="15" y="60" width="5" height="5" fill="#265C42"/>
<rect x="10" y="55" width="5" height="5" fill="#265C42"/>
<rect x="5" y="50" width="5" height="5" fill="#265C42"/>
<rect x="10" y="45" width="5" height="5" fill="#265C42"/>
<rect x="15" y="40" width="5" height="5" fill="#265C42"/>
<rect x="15" y="35" width="5" height="5" fill="#265C42"/>
<rect x="10" y="30" width="5" height="5" fill="#265C42"/>
<rect x="5" y="25" width="5" height="5" fill="#265C42"/>
<rect x="10" y="20" width="5" height="5" fill="#265C42"/>
<rect x="15" y="15" width="5" height="5" fill="#265C42"/>
<rect x="10" y="10" width="5" height="5" fill="#265C42"/>
<rect x="5" y="5" width="5" height="5" fill="#265C42"/>
<rect x="10" width="5" height="5" fill="#265C42"/>
<rect y="95" width="5" height="5" fill="#754C2F"/>
<rect x="5" y="90" width="5" height="5" fill="#754C2F"/>
<rect x="10" y="85" width="5" height="5" fill="#754C2F"/>
<rect x="10" y="80" width="5" height="5" fill="#754C2F"/>
<rect x="5" y="75" width="5" height="5" fill="#754C2F"/>
<rect x="5" y="100" width="5" height="5" fill="#754C2F"/>
<rect x="10" y="105" width="5" height="5" fill="#754C2F"/>
<rect x="15" y="110" width="5" height="5" fill="#754C2F"/>
<rect y="70" width="5" height="5" fill="#754C2F"/>
<rect x="5" y="65" width="5" height="5" fill="#754C2F"/>
<rect x="10" y="60" width="5" height="5" fill="#754C2F"/>
<rect x="5" y="55" width="5" height="5" fill="#754C2F"/>
<rect y="50" width="5" height="5" fill="#754C2F"/>
<rect x="5" y="45" width="5" height="5" fill="#754C2F"/>
<rect x="10" y="40" width="5" height="5" fill="#754C2F"/>
<rect x="10" y="35" width="5" height="5" fill="#754C2F"/>
<rect x="5" y="30" width="5" height="5" fill="#754C2F"/>
<rect y="25" width="5" height="5" fill="#754C2F"/>
<rect x="5" y="20" width="5" height="5" fill="#754C2F"/>
<rect x="10" y="15" width="5" height="5" fill="#754C2F"/>
<rect x="5" y="10" width="5" height="5" fill="#754C2F"/>
<rect y="5" width="5" height="5" fill="#754C2F"/>
<rect x="5" width="5" height="5" fill="#754C2F"/>
<rect y="90" width="5" height="5" fill="#8E5A36"/>
<rect x="5" y="85" width="5" height="5" fill="#8E5A36"/>
<rect x="5" y="110" width="5" height="5" fill="#8E5A36"/>
<rect x="5" y="115" width="5" height="5" fill="#8E5A36"/>
<rect x="5" y="120" width="15" height="5" fill="#8E5A36"/>
<rect x="10" y="115" width="5" height="5" fill="#8E5A36"/>
<rect x="15" y="115" width="5" height="5" fill="#8E5A36"/>
<rect x="5" y="80" width="5" height="5" fill="#8E5A36"/>
<rect x="5" y="105" width="5" height="5" fill="#8E5A36"/>
<rect x="10" y="110" width="5" height="5" fill="#8E5A36"/>
<rect y="75" width="5" height="5" fill="#8E5A36"/>
<rect y="100" width="5" height="5" fill="#8E5A36"/>
<rect y="65" width="5" height="5" fill="#8E5A36"/>
<rect x="5" y="60" width="5" height="5" fill="#8E5A36"/>
<rect y="55" width="5" height="5" fill="#8E5A36"/>
<rect y="45" width="5" height="5" fill="#8E5A36"/>
<rect x="5" y="40" width="5" height="5" fill="#8E5A36"/>
<rect x="5" y="35" width="5" height="5" fill="#8E5A36"/>
<rect y="30" width="5" height="5" fill="#8E5A36"/>
<rect y="20" width="5" height="5" fill="#8E5A36"/>
<rect x="5" y="15" width="5" height="5" fill="#8E5A36"/>
<rect y="10" width="5" height="5" fill="#8E5A36"/>
<rect width="5" height="5" fill="#8E5A36"/>
<rect y="85" width="5" height="5" fill="#AA6A3E"/>
<rect y="110" width="5" height="20" fill="#AA6A3E"/>
<rect x="5" y="125" width="15" height="5" fill="#AA6A3E"/>
<rect y="80" width="5" height="5" fill="#AA6A3E"/>
<rect y="105" width="5" height="5" fill="#AA6A3E"/>
<rect y="60" width="5" height="5" fill="#AA6A3E"/>
<rect y="40" width="5" height="5" fill="#AA6A3E"/>
<rect y="35" width="5" height="5" fill="#AA6A3E"/>
<rect y="15" width="5" height="5" fill="#AA6A3E"/>
</svg>
