<svg width="140" height="131" viewBox="0 0 140 131" fill="none" xmlns="http://www.w3.org/2000/svg">
<rect x="24" y="42" width="92" height="83" fill="#E6954C"/>
<rect x="18" y="60" width="6" height="71" fill="#834811"/>
<rect x="24" y="125" width="92" height="6" fill="#834811"/>
<rect x="116" y="60" width="6" height="71" fill="#834811"/>
<rect x="30" y="48" width="12" height="6" fill="#834811"/>
<rect x="18" y="54" width="12" height="6" fill="#834811"/>
<rect x="12" y="24" width="12" height="6" fill="#834811"/>
<rect x="24" y="18" width="12" height="6" fill="#834811"/>
<rect x="36" y="12" width="12" height="6" fill="#834811"/>
<rect x="48" y="6" width="12" height="6" fill="#834811"/>
<rect x="60" width="20" height="6" fill="#834811"/>
<rect x="116" y="24" width="12" height="6" fill="#834811"/>
<rect x="128" y="30" width="6" height="12" fill="#834811"/>
<rect x="104" y="18" width="12" height="6" fill="#834811"/>
<rect x="92" y="12" width="12" height="6" fill="#834811"/>
<rect x="80" y="6" width="12" height="6" fill="#834811"/>
<rect x="6" y="60" width="12" height="6" fill="#834811"/>
<rect y="36" width="6" height="30" fill="#834811"/>
<rect x="6" y="30" width="6" height="12" fill="#834811"/>
<rect x="42" y="42" width="12" height="6" fill="#834811"/>
<rect x="98" y="48" width="12" height="6" fill="#834811"/>
<rect x="110" y="54" width="12" height="6" fill="#834811"/>
<rect x="122" y="60" width="12" height="6" fill="#834811"/>
<rect x="134" y="66" width="30" height="6" transform="rotate(-90 134 66)" fill="#834811"/>
<rect x="86" y="42" width="12" height="6" fill="#834811"/>
<rect x="54" y="36" width="32" height="6" fill="#834811"/>
<rect x="49" y="84" width="6" height="41" fill="#834811"/>
<rect x="85" y="84" width="6" height="41" fill="#834811"/>
<rect x="55" y="78" width="6" height="6" fill="#834811"/>
<rect x="79" y="78" width="6" height="6" fill="#834811"/>
<rect x="61" y="72" width="18" height="6" fill="#834811"/>
<path d="M6 42H12V30H24V24H36V18H48V12H60V6H80V12H92V18H104V24H116V30H128V42H134V60H122V54H110V48H98V42H86V36H54V42H42V48H30V54H18V60H6V42Z" fill="#A46328"/>
<rect x="24" y="102" width="25" height="6" fill="#BD732E"/>
<rect x="24" y="78" width="31" height="6" fill="#BD732E"/>
<rect x="24" y="84" width="25" height="6" fill="#CA8443"/>
<rect x="91" y="84" width="25" height="6" fill="#CA8443"/>
<rect x="91" y="108" width="25" height="6" fill="#CA8443"/>
<rect x="24" y="108" width="25" height="6" fill="#CA8443"/>
<path d="M42 48H54V42H60V54H42V48Z" fill="#CA8443"/>
<rect x="91" y="102" width="25" height="6" fill="#BD732E"/>
<rect x="85" y="78" width="31" height="6" fill="#BD732E"/>
<rect x="30" y="54" width="80" height="6" fill="#BD732E"/>
<rect x="55" y="84" width="6" height="41" fill="#412409"/>
<rect x="61" y="101" width="6" height="24" fill="#412409"/>
<rect x="61" y="78" width="6" height="23" fill="#6C4420"/>
<rect x="79" y="84" width="6" height="35" fill="#6C4420"/>
<rect x="67" y="78" width="6" height="29" fill="#6C4420"/>
<rect x="73" y="78" width="6" height="41" fill="#6C4420"/>
<rect x="67" y="107" width="6" height="18" fill="#412409"/>
<rect x="73" y="119" width="12" height="6" fill="#412409"/>
<rect x="12" y="30" width="12" height="6" fill="#9B5B20"/>
<rect x="6" y="54" width="12" height="6" fill="#9B5B20"/>
<rect x="18" y="48" width="12" height="6" fill="#9B5B20"/>
<rect x="30" y="42" width="12" height="6" fill="#9B5B20"/>
<rect x="42" y="36" width="12" height="6" fill="#9B5B20"/>
<rect x="80" y="12" width="12" height="6" fill="#9B5B20"/>
<rect x="86" y="36" width="12" height="6" fill="#9B5B20"/>
<rect x="98" y="42" width="12" height="6" fill="#9B5B20"/>
<rect x="24" y="24" width="12" height="6" fill="#9B5B20"/>
<rect x="36" y="18" width="12" height="6" fill="#9B5B20"/>
<rect x="48" y="12" width="12" height="6" fill="#9B5B20"/>
<rect x="60" y="6" width="12" height="6" fill="#9B5B20"/>
</svg>
